<?xml version="1.0" standalone="no"?>
<!DOCTYPE svg PUBLIC "-//W3C//DTD SVG 20010904//EN"
 "http://www.w3.org/TR/2001/REC-SVG-20010904/DTD/svg10.dtd">
<svg version="1.0" xmlns="http://www.w3.org/2000/svg"
 width="199.000000pt" height="263.000000pt" viewBox="0 0 199.000000 263.000000"
 preserveAspectRatio="xMidYMid meet">

<g transform="translate(0.000000,263.000000) scale(0.100000,-0.100000)"
fill="#000000" stroke="none">
<path d="M340 2355 l0 -265 -170 0 -170 0 0 -30 0 -30 170 0 170 0 0 -235 0
-235 180 -120 c99 -66 180 -122 180 -124 0 -2 -81 -59 -180 -125 l-180 -122 0
-249 0 -250 -170 0 -170 0 0 -30 0 -30 170 0 170 0 0 -251 c0 -139 4 -249 9
-247 5 1 299 178 655 393 l646 389 0 243 0 243 170 0 170 0 0 30 0 30 -170 0
-170 0 0 248 0 249 -650 391 c-358 216 -653 392 -655 392 -3 0 -5 -119 -5
-265z m664 -175 l606 -365 0 -500 -1 -500 -606 -365 c-334 -201 -611 -367
-615 -368 -4 -2 -8 215 -8 482 l0 486 195 130 c107 72 195 132 195 135 0 3
-88 63 -195 135 l-195 130 0 486 c0 277 4 484 9 482 5 -1 281 -167 615 -368z"/>
<path d="M1100 1385 l0 -45 -50 0 c-49 0 -50 -1 -50 -30 0 -29 1 -30 50 -30
l50 0 0 -50 c0 -49 1 -50 30 -50 29 0 30 1 30 50 l0 50 45 0 c43 0 45 1 45 30
0 29 -2 30 -45 30 l-45 0 0 45 c0 43 -1 45 -30 45 -29 0 -30 -2 -30 -45z"/>
</g>
</svg>
