<svg width="266" height="351" viewBox="0 0 266 351" fill="none" xmlns="http://www.w3.org/2000/svg">
<g clip-path="url(#clip0_24_14)">
<path d="M45.3333 36.6667V72H22.6667H0V76V80H22.6667H45.3333V111.333V142.667L69.3333 158.667C82.5333 167.467 93.3333 174.933 93.3333 175.2C93.3333 175.467 82.5333 183.067 69.3333 191.867L45.3333 208.133V241.333V274.667H22.6667H0V278.667V282.667H22.6667H45.3333V316.133C45.3333 334.667 45.8667 349.333 46.5333 349.067C47.2 348.933 86.4 325.333 133.867 296.667L220 244.8V212.4V180H242.667H265.333V176V172H242.667H220V138.933V105.733L133.333 53.6C85.6 24.8 46.2667 1.33336 46 1.33336C45.6 1.33336 45.3333 17.2 45.3333 36.6667ZM133.867 60L214.667 108.667V175.333L214.533 242L133.733 290.667C89.2 317.467 52.2667 339.6 51.7333 339.733C51.2 340 50.6667 311.067 50.6667 275.467V210.667L76.6667 193.333C90.9333 183.733 102.667 175.733 102.667 175.333C102.667 174.933 90.9333 166.933 76.6667 157.333L50.6667 140V75.2C50.6667 38.2667 51.2 10.6667 51.8667 10.9334C52.5333 11.0667 89.3333 33.2 133.867 60Z" fill="black"/>
<line x1="156" y1="140" x2="156" y2="210" stroke="black" stroke-width="12"/>
<line x1="190" y1="175" x2="120" y2="175" stroke="black" stroke-width="12"/>
</g>
<defs>
<clipPath id="clip0_24_14">
<rect width="265.333" height="350.667" fill="white"/>
</clipPath>
</defs>
</svg>
