<?xml version="1.0" standalone="no"?>
<!DOCTYPE svg PUBLIC "-//W3C//DTD SVG 20010904//EN"
 "http://www.w3.org/TR/2001/REC-SVG-20010904/DTD/svg10.dtd">
<svg version="1.0" xmlns="http://www.w3.org/2000/svg"
 width="558.000000pt" height="305.000000pt" viewBox="0 0 558.000000 305.000000"
 preserveAspectRatio="xMidYMid meet">

<g transform="translate(0.000000,305.000000) scale(0.100000,-0.100000)"
fill="#000000" stroke="none">
<path d="M1530 2745 l0 -275 -727 0 c-706 0 -729 -1 -760 -20 -57 -34 -57
-106 0 -140 31 -19 54 -20 760 -20 l727 0 0 -765 0 -765 -727 0 c-706 0 -729
-1 -760 -20 -57 -34 -57 -106 0 -140 31 -19 54 -20 760 -20 l727 0 0 -275 0
-276 853 4 c827 3 855 4 945 24 465 107 839 394 1041 798 82 164 121 301 157
553 l5 32 495 0 496 0 29 29 c17 18 29 40 29 56 0 16 -12 38 -29 56 l-29 29
-496 0 -495 0 -5 33 c-27 189 -41 254 -71 345 -172 514 -583 880 -1127 1005
-90 20 -118 21 -945 24 l-853 4 0 -276z m1755 18 c255 -59 450 -167 631 -347
184 -185 294 -388 350 -648 25 -116 25 -371 0 -488 -55 -257 -167 -463 -350
-646 -181 -180 -376 -288 -631 -347 -86 -20 -123 -21 -802 -24 l-713 -4 0
1266 0 1266 713 -4 c679 -3 716 -4 802 -24z"/>
</g>
</svg>
