<svg width="153" height="223" viewBox="0 0 153 223" fill="none" xmlns="http://www.w3.org/2000/svg">
<line x1="20" y1="46.5" y2="46.5" stroke="black" stroke-width="3"/>
<line x1="20" y1="91.5" y2="91.5" stroke="black" stroke-width="3"/>
<line x1="20" y1="136.5" y2="136.5" stroke="black" stroke-width="3"/>
<line x1="20" y1="181.5" y2="181.5" stroke="black" stroke-width="3"/>
<path d="M21 220L21 3L132 57.25L132 165.75L21 220Z" fill="white" stroke="black" stroke-width="3"/>
<line x1="153" y1="112.5" x2="133" y2="112.5" stroke="black" stroke-width="3"/>
<path d="M67.4013 107V95.3636H71.4695C72.2801 95.3636 72.9486 95.5038 73.4751 95.7841C74.0017 96.0606 74.3937 96.4337 74.6513 96.9034C74.9089 97.3693 75.0376 97.8864 75.0376 98.4545C75.0376 98.9545 74.9486 99.3674 74.7706 99.6932C74.5964 100.019 74.3653 100.277 74.0774 100.466C73.7933 100.655 73.4846 100.795 73.1513 100.886V101C73.5073 101.023 73.8653 101.148 74.2251 101.375C74.585 101.602 74.8861 101.928 75.1286 102.352C75.371 102.777 75.4922 103.295 75.4922 103.909C75.4922 104.492 75.3596 105.017 75.0945 105.483C74.8293 105.949 74.4107 106.318 73.8388 106.591C73.2668 106.864 72.5225 107 71.6058 107H67.4013ZM68.8104 105.75H71.6058C72.5263 105.75 73.1797 105.572 73.5661 105.216C73.9562 104.856 74.1513 104.42 74.1513 103.909C74.1513 103.515 74.0509 103.152 73.8501 102.818C73.6494 102.481 73.3634 102.212 72.9922 102.011C72.621 101.807 72.1816 101.705 71.674 101.705H68.8104V105.75ZM68.8104 100.477H71.424C71.8482 100.477 72.2308 100.394 72.5717 100.227C72.9164 100.061 73.1892 99.8258 73.3899 99.5227C73.5945 99.2197 73.6967 98.8636 73.6967 98.4545C73.6967 97.9432 73.5187 97.5095 73.1626 97.1534C72.8066 96.7936 72.2422 96.6136 71.4695 96.6136H68.8104V100.477ZM77.6257 107V98.2727H78.9666V107H77.6257ZM78.3075 96.8182C78.0462 96.8182 77.8208 96.7292 77.6314 96.5511C77.4458 96.3731 77.353 96.1591 77.353 95.9091C77.353 95.6591 77.4458 95.4451 77.6314 95.267C77.8208 95.089 78.0462 95 78.3075 95C78.5689 95 78.7924 95.089 78.978 95.267C79.1674 95.4451 79.2621 95.6591 79.2621 95.9091C79.2621 96.1591 79.1674 96.3731 78.978 96.5511C78.7924 96.7292 78.5689 96.8182 78.3075 96.8182ZM85.218 98.2727V99.4091H80.6953V98.2727H85.218ZM82.0135 96.1818H83.3544V104.5C83.3544 104.879 83.4093 105.163 83.5192 105.352C83.6328 105.538 83.7768 105.663 83.951 105.727C84.129 105.788 84.3165 105.818 84.5135 105.818C84.6612 105.818 84.7824 105.811 84.8771 105.795C84.9718 105.777 85.0476 105.761 85.1044 105.75L85.3771 106.955C85.2862 106.989 85.1593 107.023 84.9964 107.057C84.8336 107.095 84.6271 107.114 84.3771 107.114C83.9983 107.114 83.6271 107.032 83.2635 106.869C82.9036 106.706 82.6044 106.458 82.3658 106.125C82.1309 105.792 82.0135 105.371 82.0135 104.864V96.1818ZM53.0227 118H51.6136C51.5303 117.595 51.3845 117.239 51.1761 116.932C50.9716 116.625 50.7216 116.367 50.4261 116.159C50.1345 115.947 49.8106 115.788 49.4545 115.682C49.0985 115.576 48.7273 115.523 48.3409 115.523C47.6364 115.523 46.9981 115.701 46.4261 116.057C45.858 116.413 45.4053 116.938 45.0682 117.631C44.7348 118.324 44.5682 119.174 44.5682 120.182C44.5682 121.189 44.7348 122.04 45.0682 122.733C45.4053 123.426 45.858 123.951 46.4261 124.307C46.9981 124.663 47.6364 124.841 48.3409 124.841C48.7273 124.841 49.0985 124.788 49.4545 124.682C49.8106 124.576 50.1345 124.419 50.4261 124.21C50.7216 123.998 50.9716 123.739 51.1761 123.432C51.3845 123.121 51.5303 122.765 51.6136 122.364H53.0227C52.9167 122.958 52.7235 123.491 52.4432 123.96C52.1629 124.43 51.8144 124.83 51.3977 125.159C50.9811 125.485 50.5133 125.733 49.9943 125.903C49.4792 126.074 48.928 126.159 48.3409 126.159C47.3485 126.159 46.4659 125.917 45.6932 125.432C44.9205 124.947 44.3125 124.258 43.8693 123.364C43.4261 122.47 43.2045 121.409 43.2045 120.182C43.2045 118.955 43.4261 117.894 43.8693 117C44.3125 116.106 44.9205 115.417 45.6932 114.932C46.4659 114.447 47.3485 114.205 48.3409 114.205C48.928 114.205 49.4792 114.29 49.9943 114.46C50.5133 114.631 50.9811 114.881 51.3977 115.21C51.8144 115.536 52.1629 115.934 52.4432 116.403C52.7235 116.869 52.9167 117.402 53.0227 118ZM58.6634 126.182C57.8755 126.182 57.1842 125.994 56.5895 125.619C55.9986 125.244 55.5365 124.72 55.2031 124.045C54.8736 123.371 54.7088 122.583 54.7088 121.682C54.7088 120.773 54.8736 119.979 55.2031 119.301C55.5365 118.623 55.9986 118.097 56.5895 117.722C57.1842 117.347 57.8755 117.159 58.6634 117.159C59.4512 117.159 60.1406 117.347 60.7315 117.722C61.3262 118.097 61.7884 118.623 62.1179 119.301C62.4512 119.979 62.6179 120.773 62.6179 121.682C62.6179 122.583 62.4512 123.371 62.1179 124.045C61.7884 124.72 61.3262 125.244 60.7315 125.619C60.1406 125.994 59.4512 126.182 58.6634 126.182ZM58.6634 124.977C59.2618 124.977 59.7543 124.824 60.1406 124.517C60.527 124.21 60.813 123.807 60.9986 123.307C61.1842 122.807 61.277 122.265 61.277 121.682C61.277 121.098 61.1842 120.555 60.9986 120.051C60.813 119.547 60.527 119.14 60.1406 118.83C59.7543 118.519 59.2618 118.364 58.6634 118.364C58.0649 118.364 57.5724 118.519 57.1861 118.83C56.7997 119.14 56.5137 119.547 56.3281 120.051C56.1425 120.555 56.0497 121.098 56.0497 121.682C56.0497 122.265 56.1425 122.807 56.3281 123.307C56.5137 123.807 56.7997 124.21 57.1861 124.517C57.5724 124.824 58.0649 124.977 58.6634 124.977ZM64.6648 126V117.273H65.9602V118.636H66.0739C66.2557 118.17 66.5492 117.809 66.9545 117.551C67.3598 117.29 67.8466 117.159 68.4148 117.159C68.9905 117.159 69.4697 117.29 69.8523 117.551C70.2386 117.809 70.5398 118.17 70.7557 118.636H70.8466C71.0701 118.186 71.4053 117.828 71.8523 117.562C72.2992 117.294 72.8352 117.159 73.4602 117.159C74.2405 117.159 74.8788 117.403 75.375 117.892C75.8712 118.377 76.1193 119.133 76.1193 120.159V126H74.7784V120.159C74.7784 119.515 74.6023 119.055 74.25 118.778C73.8977 118.502 73.483 118.364 73.0057 118.364C72.392 118.364 71.9167 118.549 71.5795 118.92C71.2424 119.288 71.0739 119.754 71.0739 120.318V126H69.7102V120.023C69.7102 119.527 69.5492 119.127 69.2273 118.824C68.9053 118.517 68.4905 118.364 67.983 118.364C67.6345 118.364 67.3087 118.456 67.0057 118.642C66.7064 118.828 66.464 119.085 66.2784 119.415C66.0966 119.741 66.0057 120.117 66.0057 120.545V126H64.6648ZM78.7528 126V114.364H80.0938V118.659H80.2074C80.3059 118.508 80.4422 118.314 80.6165 118.08C80.7945 117.841 81.0483 117.629 81.3778 117.443C81.7112 117.254 82.1619 117.159 82.7301 117.159C83.465 117.159 84.1127 117.343 84.6733 117.71C85.2339 118.078 85.6714 118.598 85.9858 119.273C86.3002 119.947 86.4574 120.742 86.4574 121.659C86.4574 122.583 86.3002 123.384 85.9858 124.062C85.6714 124.737 85.2358 125.259 84.679 125.631C84.1222 125.998 83.4801 126.182 82.7528 126.182C82.1922 126.182 81.7434 126.089 81.4062 125.903C81.0691 125.714 80.8097 125.5 80.6278 125.261C80.446 125.019 80.3059 124.818 80.2074 124.659H80.0483V126H78.7528ZM80.071 121.636C80.071 122.295 80.1676 122.877 80.3608 123.381C80.554 123.881 80.8362 124.273 81.2074 124.557C81.5786 124.837 82.0331 124.977 82.571 124.977C83.1316 124.977 83.5994 124.83 83.9744 124.534C84.3532 124.235 84.6373 123.833 84.8267 123.33C85.0199 122.822 85.1165 122.258 85.1165 121.636C85.1165 121.023 85.0218 120.47 84.8324 119.977C84.6468 119.481 84.3646 119.089 83.9858 118.801C83.6108 118.509 83.1392 118.364 82.571 118.364C82.0256 118.364 81.5672 118.502 81.196 118.778C80.8248 119.051 80.5445 119.434 80.3551 119.926C80.1657 120.415 80.071 120.985 80.071 121.636ZM88.5085 126V117.273H89.8494V126H88.5085ZM89.1903 115.818C88.929 115.818 88.7036 115.729 88.5142 115.551C88.3286 115.373 88.2358 115.159 88.2358 114.909C88.2358 114.659 88.3286 114.445 88.5142 114.267C88.7036 114.089 88.929 114 89.1903 114C89.4517 114 89.6752 114.089 89.8608 114.267C90.0502 114.445 90.1449 114.659 90.1449 114.909C90.1449 115.159 90.0502 115.373 89.8608 115.551C89.6752 115.729 89.4517 115.818 89.1903 115.818ZM93.6463 120.75V126H92.3054V117.273H93.6009V118.636H93.7145C93.919 118.193 94.2296 117.837 94.6463 117.568C95.063 117.295 95.6009 117.159 96.2599 117.159C96.8509 117.159 97.3679 117.28 97.8111 117.523C98.2543 117.761 98.599 118.125 98.8452 118.614C99.0914 119.098 99.2145 119.712 99.2145 120.455V126H97.8736V120.545C97.8736 119.86 97.6955 119.326 97.3395 118.943C96.9834 118.557 96.4948 118.364 95.8736 118.364C95.4455 118.364 95.063 118.456 94.7259 118.642C94.3925 118.828 94.1293 119.098 93.9361 119.455C93.7429 119.811 93.6463 120.242 93.6463 120.75ZM105.324 126.182C104.483 126.182 103.758 125.996 103.148 125.625C102.542 125.25 102.074 124.727 101.744 124.057C101.419 123.383 101.256 122.598 101.256 121.705C101.256 120.811 101.419 120.023 101.744 119.341C102.074 118.655 102.532 118.121 103.119 117.739C103.71 117.352 104.4 117.159 105.188 117.159C105.642 117.159 106.091 117.235 106.534 117.386C106.977 117.538 107.381 117.784 107.744 118.125C108.108 118.462 108.398 118.909 108.614 119.466C108.83 120.023 108.938 120.708 108.938 121.523V122.091H102.21V120.932H107.574C107.574 120.439 107.475 120 107.278 119.614C107.085 119.227 106.809 118.922 106.449 118.699C106.093 118.475 105.672 118.364 105.188 118.364C104.653 118.364 104.191 118.496 103.801 118.761C103.415 119.023 103.117 119.364 102.909 119.784C102.701 120.205 102.597 120.655 102.597 121.136V121.909C102.597 122.568 102.71 123.127 102.938 123.585C103.169 124.04 103.489 124.386 103.898 124.625C104.307 124.86 104.782 124.977 105.324 124.977C105.676 124.977 105.994 124.928 106.278 124.83C106.566 124.727 106.814 124.576 107.023 124.375C107.231 124.17 107.392 123.917 107.506 123.614L108.801 123.977C108.665 124.417 108.436 124.803 108.114 125.136C107.792 125.466 107.394 125.723 106.92 125.909C106.447 126.091 105.915 126.182 105.324 126.182Z" fill="black"/>
</svg>
