<svg width="153" height="223" viewBox="0 0 153 223" fill="none" xmlns="http://www.w3.org/2000/svg">
<path d="M132 220L132 3L21 57.25L21 165.75L132 220Z" fill="white" stroke="black" stroke-width="3"/>
<line x1="20" y1="112.5" y2="112.5" stroke="black" stroke-width="3"/>
<line x1="153" y1="45.5" x2="133" y2="45.5" stroke="black" stroke-width="3"/>
<line x1="153" y1="90.5" x2="133" y2="90.5" stroke="black" stroke-width="3"/>
<line x1="153" y1="135.5" x2="133" y2="135.5" stroke="black" stroke-width="3"/>
<line x1="153" y1="180.5" x2="133" y2="180.5" stroke="black" stroke-width="3"/>
<path d="M67.4013 107V95.3636H71.4695C72.2801 95.3636 72.9486 95.5038 73.4751 95.7841C74.0017 96.0606 74.3937 96.4337 74.6513 96.9034C74.9089 97.3693 75.0376 97.8864 75.0376 98.4545C75.0376 98.9545 74.9486 99.3674 74.7706 99.6932C74.5964 100.019 74.3653 100.277 74.0774 100.466C73.7933 100.655 73.4846 100.795 73.1513 100.886V101C73.5073 101.023 73.8653 101.148 74.2251 101.375C74.585 101.602 74.8861 101.928 75.1286 102.352C75.371 102.777 75.4922 103.295 75.4922 103.909C75.4922 104.492 75.3596 105.017 75.0945 105.483C74.8293 105.949 74.4107 106.318 73.8388 106.591C73.2668 106.864 72.5225 107 71.6058 107H67.4013ZM68.8104 105.75H71.6058C72.5263 105.75 73.1797 105.572 73.5661 105.216C73.9562 104.856 74.1513 104.42 74.1513 103.909C74.1513 103.515 74.0509 103.152 73.8501 102.818C73.6494 102.481 73.3634 102.212 72.9922 102.011C72.621 101.807 72.1816 101.705 71.674 101.705H68.8104V105.75ZM68.8104 100.477H71.424C71.8482 100.477 72.2308 100.394 72.5717 100.227C72.9164 100.061 73.1892 99.8258 73.3899 99.5227C73.5945 99.2197 73.6967 98.8636 73.6967 98.4545C73.6967 97.9432 73.5187 97.5095 73.1626 97.1534C72.8066 96.7936 72.2422 96.6136 71.4695 96.6136H68.8104V100.477ZM77.6257 107V98.2727H78.9666V107H77.6257ZM78.3075 96.8182C78.0462 96.8182 77.8208 96.7292 77.6314 96.5511C77.4458 96.3731 77.353 96.1591 77.353 95.9091C77.353 95.6591 77.4458 95.4451 77.6314 95.267C77.8208 95.089 78.0462 95 78.3075 95C78.5689 95 78.7924 95.089 78.978 95.267C79.1674 95.4451 79.2621 95.6591 79.2621 95.9091C79.2621 96.1591 79.1674 96.3731 78.978 96.5511C78.7924 96.7292 78.5689 96.8182 78.3075 96.8182ZM85.218 98.2727V99.4091H80.6953V98.2727H85.218ZM82.0135 96.1818H83.3544V104.5C83.3544 104.879 83.4093 105.163 83.5192 105.352C83.6328 105.538 83.7768 105.663 83.951 105.727C84.129 105.788 84.3165 105.818 84.5135 105.818C84.6612 105.818 84.7824 105.811 84.8771 105.795C84.9718 105.777 85.0476 105.761 85.1044 105.75L85.3771 106.955C85.2862 106.989 85.1593 107.023 84.9964 107.057C84.8336 107.095 84.6271 107.114 84.3771 107.114C83.9983 107.114 83.6271 107.032 83.2635 106.869C82.9036 106.706 82.6044 106.458 82.3658 106.125C82.1309 105.792 82.0135 105.371 82.0135 104.864V96.1818ZM60.0852 117.273C60.017 116.697 59.7405 116.25 59.2557 115.932C58.7708 115.614 58.1761 115.455 57.4716 115.455C56.9564 115.455 56.5057 115.538 56.1193 115.705C55.7367 115.871 55.4375 116.1 55.2216 116.392C55.0095 116.684 54.9034 117.015 54.9034 117.386C54.9034 117.697 54.9773 117.964 55.125 118.188C55.2765 118.407 55.4697 118.591 55.7045 118.739C55.9394 118.883 56.1856 119.002 56.4432 119.097C56.7008 119.187 56.9375 119.261 57.1534 119.318L58.3352 119.636C58.6383 119.716 58.9754 119.826 59.3466 119.966C59.7216 120.106 60.0795 120.297 60.4205 120.54C60.7652 120.778 61.0492 121.085 61.2727 121.46C61.4962 121.835 61.608 122.295 61.608 122.841C61.608 123.47 61.4432 124.038 61.1136 124.545C60.7879 125.053 60.3106 125.456 59.6818 125.756C59.0568 126.055 58.2973 126.205 57.4034 126.205C56.5701 126.205 55.8485 126.07 55.2386 125.801C54.6326 125.532 54.1553 125.157 53.8068 124.676C53.4621 124.195 53.267 123.636 53.2216 123H54.6761C54.714 123.439 54.8617 123.803 55.1193 124.091C55.3807 124.375 55.7102 124.587 56.108 124.727C56.5095 124.864 56.9413 124.932 57.4034 124.932C57.9413 124.932 58.4242 124.845 58.8523 124.67C59.2803 124.492 59.6193 124.246 59.8693 123.932C60.1193 123.614 60.2443 123.242 60.2443 122.818C60.2443 122.432 60.1364 122.117 59.9205 121.875C59.7045 121.633 59.4205 121.436 59.0682 121.284C58.7159 121.133 58.3352 121 57.9261 120.886L56.4943 120.477C55.5852 120.216 54.8655 119.843 54.3352 119.358C53.8049 118.873 53.5398 118.239 53.5398 117.455C53.5398 116.803 53.7159 116.235 54.0682 115.75C54.4242 115.261 54.9015 114.883 55.5 114.614C56.1023 114.341 56.7746 114.205 57.517 114.205C58.267 114.205 58.9337 114.339 59.517 114.608C60.1004 114.873 60.5625 115.237 60.9034 115.699C61.2481 116.161 61.4299 116.686 61.4489 117.273H60.0852ZM67.402 126.182C66.5611 126.182 65.8357 125.996 65.2259 125.625C64.6198 125.25 64.152 124.727 63.8224 124.057C63.4967 123.383 63.3338 122.598 63.3338 121.705C63.3338 120.811 63.4967 120.023 63.8224 119.341C64.152 118.655 64.6103 118.121 65.1974 117.739C65.7884 117.352 66.4777 117.159 67.2656 117.159C67.7202 117.159 68.169 117.235 68.6122 117.386C69.0554 117.538 69.4588 117.784 69.8224 118.125C70.1861 118.462 70.4759 118.909 70.6918 119.466C70.9077 120.023 71.0156 120.708 71.0156 121.523V122.091H64.2884V120.932H69.652C69.652 120.439 69.5535 120 69.3565 119.614C69.1634 119.227 68.8868 118.922 68.527 118.699C68.1709 118.475 67.7505 118.364 67.2656 118.364C66.7315 118.364 66.2694 118.496 65.8793 118.761C65.4929 119.023 65.1955 119.364 64.9872 119.784C64.7789 120.205 64.6747 120.655 64.6747 121.136V121.909C64.6747 122.568 64.7884 123.127 65.0156 123.585C65.2467 124.04 65.5668 124.386 65.9759 124.625C66.3849 124.86 66.8603 124.977 67.402 124.977C67.7543 124.977 68.0724 124.928 68.3565 124.83C68.6444 124.727 68.8925 124.576 69.1009 124.375C69.3092 124.17 69.4702 123.917 69.5838 123.614L70.8793 123.977C70.7429 124.417 70.5137 124.803 70.1918 125.136C69.8698 125.466 69.4721 125.723 68.9986 125.909C68.5251 126.091 67.9929 126.182 67.402 126.182ZM74.3963 114.364V126H73.0554V114.364H74.3963ZM80.5114 126.182C79.6705 126.182 78.9451 125.996 78.3352 125.625C77.7292 125.25 77.2614 124.727 76.9318 124.057C76.6061 123.383 76.4432 122.598 76.4432 121.705C76.4432 120.811 76.6061 120.023 76.9318 119.341C77.2614 118.655 77.7197 118.121 78.3068 117.739C78.8977 117.352 79.5871 117.159 80.375 117.159C80.8295 117.159 81.2784 117.235 81.7216 117.386C82.1648 117.538 82.5682 117.784 82.9318 118.125C83.2955 118.462 83.5852 118.909 83.8011 119.466C84.017 120.023 84.125 120.708 84.125 121.523V122.091H77.3977V120.932H82.7614C82.7614 120.439 82.6629 120 82.4659 119.614C82.2727 119.227 81.9962 118.922 81.6364 118.699C81.2803 118.475 80.8598 118.364 80.375 118.364C79.8409 118.364 79.3788 118.496 78.9886 118.761C78.6023 119.023 78.3049 119.364 78.0966 119.784C77.8883 120.205 77.7841 120.655 77.7841 121.136V121.909C77.7841 122.568 77.8977 123.127 78.125 123.585C78.3561 124.04 78.6761 124.386 79.0852 124.625C79.4943 124.86 79.9697 124.977 80.5114 124.977C80.8636 124.977 81.1818 124.928 81.4659 124.83C81.7538 124.727 82.0019 124.576 82.2102 124.375C82.4186 124.17 82.5795 123.917 82.6932 123.614L83.9886 123.977C83.8523 124.417 83.6231 124.803 83.3011 125.136C82.9792 125.466 82.5814 125.723 82.108 125.909C81.6345 126.091 81.1023 126.182 80.5114 126.182ZM89.7102 126.182C88.892 126.182 88.1875 125.989 87.5966 125.602C87.0057 125.216 86.5511 124.684 86.233 124.006C85.9148 123.328 85.7557 122.553 85.7557 121.682C85.7557 120.795 85.9186 120.013 86.2443 119.335C86.5739 118.653 87.0322 118.121 87.6193 117.739C88.2102 117.352 88.8996 117.159 89.6875 117.159C90.3011 117.159 90.8542 117.273 91.3466 117.5C91.839 117.727 92.2424 118.045 92.5568 118.455C92.8712 118.864 93.0663 119.341 93.142 119.886H91.8011C91.6989 119.489 91.4716 119.136 91.1193 118.83C90.7708 118.519 90.3011 118.364 89.7102 118.364C89.1875 118.364 88.7292 118.5 88.3352 118.773C87.9451 119.042 87.6402 119.422 87.4205 119.915C87.2045 120.403 87.0966 120.977 87.0966 121.636C87.0966 122.311 87.2027 122.898 87.4148 123.398C87.6307 123.898 87.9337 124.286 88.3239 124.562C88.7178 124.839 89.1799 124.977 89.7102 124.977C90.0587 124.977 90.375 124.917 90.6591 124.795C90.9432 124.674 91.1837 124.5 91.3807 124.273C91.5777 124.045 91.7178 123.773 91.8011 123.455H93.142C93.0663 123.97 92.8788 124.434 92.5795 124.847C92.2841 125.256 91.892 125.581 91.4034 125.824C90.9186 126.062 90.3542 126.182 89.7102 126.182ZM98.8977 117.273V118.409H94.375V117.273H98.8977ZM95.6932 115.182H97.0341V123.5C97.0341 123.879 97.089 124.163 97.1989 124.352C97.3125 124.538 97.4564 124.663 97.6307 124.727C97.8087 124.788 97.9962 124.818 98.1932 124.818C98.3409 124.818 98.4621 124.811 98.5568 124.795C98.6515 124.777 98.7273 124.761 98.7841 124.75L99.0568 125.955C98.9659 125.989 98.839 126.023 98.6761 126.057C98.5133 126.095 98.3068 126.114 98.0568 126.114C97.678 126.114 97.3068 126.032 96.9432 125.869C96.5833 125.706 96.2841 125.458 96.0455 125.125C95.8106 124.792 95.6932 124.371 95.6932 123.864V115.182Z" fill="black"/>
</svg>
