<svg width="153" height="223" viewBox="0 0 153 223" fill="none" xmlns="http://www.w3.org/2000/svg">
    <line x1="20" y1="46.5" y2="46.5" stroke="black" stroke-width="3"/>
    <line x1="20" y1="91.5" y2="91.5" stroke="black" stroke-width="3"/>
    <line x1="20" y1="136.5" y2="136.5" stroke="black" stroke-width="3"/>
    <line x1="20" y1="181.5" y2="181.5" stroke="black" stroke-width="3"/>
    <path d="M21 220L21 3L132 57.25L132 165.75L21 220Z" fill="white" stroke="black" stroke-width="3"/>
    <line x1="153" y1="112.5" x2="133" y2="112.5" stroke="black" stroke-width="3"/>
    <path d="M47.0526 106.5H43.9703C43.788 105.613 43.469 104.835 43.0132 104.163C42.5658 103.492 42.0189 102.929 41.3726 102.473C40.7346 102.009 40.0261 101.661 39.2472 101.429C38.4684 101.197 37.6563 101.081 36.8112 101.081C35.27 101.081 33.8738 101.47 32.6226 102.249C31.3797 103.028 30.3895 104.176 29.6521 105.692C28.9229 107.208 28.5583 109.069 28.5583 111.273C28.5583 113.477 28.9229 115.337 29.6521 116.853C30.3895 118.37 31.3797 119.517 32.6226 120.296C33.8738 121.075 35.27 121.464 36.8112 121.464C37.6563 121.464 38.4684 121.348 39.2472 121.116C40.0261 120.884 40.7346 120.541 41.3726 120.085C42.0189 119.621 42.5658 119.053 43.0132 118.382C43.469 117.703 43.788 116.924 43.9703 116.045H47.0526C46.8206 117.346 46.3981 118.511 45.7849 119.538C45.1717 120.565 44.4094 121.44 43.498 122.161C42.5865 122.873 41.5632 123.416 40.428 123.789C39.3011 124.162 38.0955 124.348 36.8112 124.348C34.6402 124.348 32.7096 123.818 31.0193 122.757C29.3289 121.696 27.999 120.188 27.0296 118.233C26.0601 116.277 25.5754 113.957 25.5754 111.273C25.5754 108.588 26.0601 106.268 27.0296 104.312C27.999 102.357 29.3289 100.849 31.0193 99.7884C32.7096 98.7277 34.6402 98.1974 36.8112 98.1974C38.0955 98.1974 39.3011 98.3839 40.428 98.7567C41.5632 99.1296 42.5865 99.6765 43.498 100.397C44.4094 101.11 45.1717 101.98 45.7849 103.007C46.3981 104.027 46.8206 105.191 47.0526 106.5ZM73.5108 111.273C73.5108 113.957 73.0261 116.277 72.0566 118.233C71.0872 120.188 69.7573 121.696 68.0669 122.757C66.3766 123.818 64.446 124.348 62.275 124.348C60.1041 124.348 58.1735 123.818 56.4831 122.757C54.7928 121.696 53.4629 120.188 52.4934 118.233C51.524 116.277 51.0392 113.957 51.0392 111.273C51.0392 108.588 51.524 106.268 52.4934 104.312C53.4629 102.357 54.7928 100.849 56.4831 99.7884C58.1735 98.7277 60.1041 98.1974 62.275 98.1974C64.446 98.1974 66.3766 98.7277 68.0669 99.7884C69.7573 100.849 71.0872 102.357 72.0566 104.312C73.0261 106.268 73.5108 108.588 73.5108 111.273ZM70.5279 111.273C70.5279 109.069 70.1592 107.208 69.4217 105.692C68.6925 104.176 67.7024 103.028 66.4512 102.249C65.2083 101.47 63.8162 101.081 62.275 101.081C60.7338 101.081 59.3377 101.47 58.0865 102.249C56.8436 103.028 55.8534 104.176 55.1159 105.692C54.3868 107.208 54.0222 109.069 54.0222 111.273C54.0222 113.477 54.3868 115.337 55.1159 116.853C55.8534 118.37 56.8436 119.517 58.0865 120.296C59.3377 121.075 60.7338 121.464 62.275 121.464C63.8162 121.464 65.2083 121.075 66.4512 120.296C67.7024 119.517 68.6925 118.37 69.4217 116.853C70.1592 115.337 70.5279 113.477 70.5279 111.273ZM78.6937 98.5455H82.3727L91.0233 119.675H91.3216L99.9721 98.5455H103.651V124H100.768V104.661H100.519L92.5645 124H89.7804L81.8258 104.661H81.5772V124H78.6937V98.5455ZM109.831 124V98.5455H118.731C120.504 98.5455 121.966 98.852 123.118 99.4652C124.27 100.07 125.127 100.886 125.691 101.914C126.254 102.933 126.536 104.064 126.536 105.307C126.536 106.401 126.341 107.304 125.952 108.016C125.571 108.729 125.065 109.292 124.435 109.707C123.814 110.121 123.139 110.428 122.41 110.626V110.875C123.188 110.925 123.971 111.198 124.759 111.695C125.546 112.192 126.205 112.905 126.735 113.833C127.265 114.761 127.53 115.896 127.53 117.239C127.53 118.515 127.24 119.662 126.66 120.681C126.08 121.701 125.165 122.509 123.913 123.105C122.662 123.702 121.034 124 119.029 124H109.831ZM112.914 121.266H119.029C121.042 121.266 122.472 120.876 123.317 120.097C124.17 119.31 124.597 118.357 124.597 117.239C124.597 116.377 124.377 115.581 123.938 114.852C123.499 114.115 122.874 113.527 122.062 113.087C121.249 112.64 120.288 112.416 119.178 112.416H112.914V121.266ZM112.914 109.732H118.631C119.559 109.732 120.396 109.549 121.142 109.185C121.896 108.82 122.492 108.306 122.932 107.643C123.379 106.981 123.603 106.202 123.603 105.307C123.603 104.188 123.213 103.239 122.434 102.461C121.656 101.673 120.421 101.28 118.731 101.28H112.914V109.732Z" fill="black"/>
</svg>
