<?xml version="1.0" standalone="no"?>
<!DOCTYPE svg PUBLIC "-//W3C//DTD SVG 20010904//EN"
 "http://www.w3.org/TR/2001/REC-SVG-20010904/DTD/svg10.dtd">
<svg version="1.0" xmlns="http://www.w3.org/2000/svg"
 width="218.000000pt" height="300.000000pt" viewBox="0 0 218.000000 300.000000"
 preserveAspectRatio="xMidYMid meet">

<g transform="translate(0.000000,300.000000) scale(0.100000,-0.100000)"
fill="#000000" stroke="none">
<path d="M340 2770 l0 -230 -170 0 -170 0 0 -30 0 -30 170 0 170 0 0 -1240 0
-1240 750 0 750 0 0 740 0 740 170 0 170 0 0 30 0 30 -170 0 -170 0 0 730 0
730 -750 0 -750 0 0 -230z m1440 -1270 l0 -1440 -690 0 -690 0 0 1440 0 1440
690 0 690 0 0 -1440z"/>
</g>
</svg>
