<svg width="160" height="220" viewBox="0 0 160 220" fill="none" xmlns="http://www.w3.org/2000/svg">
    <g clip-path="url(#clip0_32_48)">
        <path d="M24.9333 16.8667V33.7333H12.4667H0V35.9333V38.1333H12.4667H24.9333V129.067V220H79.9333H134.933V165.733V111.467H147.4H159.867V109.267V107.067H147.4H134.933V53.5333V8.64267e-06H79.9333H24.9333V16.8667ZM130.533 110V215.6H79.9333H29.3333V110V4.40001H79.9333H130.533V110Z" fill="black"/>
        <path d="M55.1685 123H47.3133V97.5455H55.5165C57.9857 97.5455 60.0986 98.055 61.8552 99.0742C63.6119 100.085 64.9583 101.539 65.8947 103.437C66.831 105.326 67.2991 107.588 67.2991 110.223C67.2991 112.875 66.8268 115.157 65.8822 117.071C64.9376 118.977 63.5622 120.444 61.7558 121.471C59.9495 122.49 57.7537 123 55.1685 123ZM50.3957 120.266H54.9696C57.0742 120.266 58.8184 119.86 60.2022 119.048C61.586 118.236 62.6176 117.08 63.297 115.58C63.9765 114.08 64.3162 112.295 64.3162 110.223C64.3162 108.168 63.9806 106.399 63.3094 104.916C62.6383 103.424 61.6357 102.281 60.3016 101.485C58.9676 100.682 57.3062 100.28 55.3176 100.28H50.3957V120.266ZM72.4696 123V97.5455H87.8318V100.28H75.552V108.881H87.0364V111.615H75.552V120.266H88.0307V123H72.4696ZM113.871 105.5H110.788C110.606 104.613 110.287 103.835 109.831 103.163C109.384 102.492 108.837 101.929 108.19 101.473C107.552 101.009 106.844 100.661 106.065 100.429C105.286 100.197 104.474 100.081 103.629 100.081C102.088 100.081 100.692 100.47 99.4405 101.249C98.1976 102.028 97.2074 103.176 96.4699 104.692C95.7408 106.208 95.3762 108.069 95.3762 110.273C95.3762 112.477 95.7408 114.337 96.4699 115.853C97.2074 117.37 98.1976 118.517 99.4405 119.296C100.692 120.075 102.088 120.464 103.629 120.464C104.474 120.464 105.286 120.348 106.065 120.116C106.844 119.884 107.552 119.541 108.19 119.085C108.837 118.621 109.384 118.053 109.831 117.382C110.287 116.703 110.606 115.924 110.788 115.045H113.871C113.639 116.346 113.216 117.511 112.603 118.538C111.99 119.565 111.227 120.44 110.316 121.161C109.404 121.873 108.381 122.416 107.246 122.789C106.119 123.162 104.913 123.348 103.629 123.348C101.458 123.348 99.5275 122.818 97.8371 121.757C96.1468 120.696 94.8169 119.188 93.8474 117.233C92.878 115.277 92.3932 112.957 92.3932 110.273C92.3932 107.588 92.878 105.268 93.8474 103.312C94.8169 101.357 96.1468 99.849 97.8371 98.7884C99.5275 97.7277 101.458 97.1974 103.629 97.1974C104.913 97.1974 106.119 97.3839 107.246 97.7567C108.381 98.1296 109.404 98.6765 110.316 99.3974C111.227 100.11 111.99 100.98 112.603 102.007C113.216 103.027 113.639 104.191 113.871 105.5Z" fill="black"/>
    </g>
    <defs>
        <clipPath id="clip0_32_48">
            <rect width="159.867" height="220" fill="white"/>
        </clipPath>
    </defs>
</svg>
