<svg width="160" height="220" viewBox="0 0 160 220" fill="none" xmlns="http://www.w3.org/2000/svg">
    <path d="M24.9333 52.8V105.6H12.4667H0V107.8V110H12.4667H24.9333V165V220H79.9333H134.933V165V110H147.4H159.867V107.8V105.6H147.4H134.933V52.8V8.64267e-06H79.9333H24.9333V52.8ZM130.533 110V215.6H79.9333H29.3333V110V4.40001H79.9333H130.533V110Z" fill="black"/>
    <path d="M47.2152 119V93.5455H62.5774V96.2798H50.2976V104.881H61.782V107.615H50.2976V116.266H62.7763V119H47.2152ZM88.3178 93.5455V119H85.3349L71.4641 99.0142H71.2156V119H68.1332V93.5455H71.1161L85.0366 113.581H85.2852V93.5455H88.3178ZM114.969 101.5H111.886C111.704 100.613 111.385 99.8345 110.929 99.1634C110.482 98.4922 109.935 97.9287 109.289 97.473C108.651 97.009 107.942 96.661 107.163 96.429C106.384 96.197 105.572 96.081 104.727 96.081C103.186 96.081 101.79 96.4704 100.539 97.2493C99.2957 98.0282 98.3055 99.1758 97.5681 100.692C96.8389 102.208 96.4743 104.069 96.4743 106.273C96.4743 108.477 96.8389 110.337 97.5681 111.853C98.3055 113.37 99.2957 114.517 100.539 115.296C101.79 116.075 103.186 116.464 104.727 116.464C105.572 116.464 106.384 116.348 107.163 116.116C107.942 115.884 108.651 115.541 109.289 115.085C109.935 114.621 110.482 114.053 110.929 113.382C111.385 112.703 111.704 111.924 111.886 111.045H114.969C114.737 112.346 114.314 113.511 113.701 114.538C113.088 115.565 112.325 116.44 111.414 117.161C110.503 117.873 109.479 118.416 108.344 118.789C107.217 119.162 106.012 119.348 104.727 119.348C102.556 119.348 100.626 118.818 98.9353 117.757C97.2449 116.696 95.915 115.188 94.9456 113.233C93.9761 111.277 93.4914 108.957 93.4914 106.273C93.4914 103.588 93.9761 101.268 94.9456 99.3125C95.915 97.357 97.2449 95.849 98.9353 94.7884C100.626 93.7277 102.556 93.1974 104.727 93.1974C106.012 93.1974 107.217 93.3839 108.344 93.7567C109.479 94.1296 110.503 94.6765 111.414 95.3974C112.325 96.11 113.088 96.98 113.701 98.0075C114.314 99.0266 114.737 100.191 114.969 101.5Z" fill="black"/>
</svg>
