<svg width="170" height="120" viewBox="0 0 170 120" fill="none" xmlns="http://www.w3.org/2000/svg">
<rect x="1.5" y="1.5" width="167" height="117" fill="white" stroke="black" stroke-width="3"/>
<path d="M29.2401 52V28.7273H43.2855V31.2273H32.0582V39.0909H42.5582V41.5909H32.0582V49.5H43.4673V52H29.2401ZM50.0014 34.5455L54.1832 41.6818L58.3651 34.5455H61.456L55.8196 43.2727L61.456 52H58.3651L54.1832 45.2273L50.0014 52H46.9105L52.456 43.2727L46.9105 34.5455H50.0014ZM65.2827 52V34.5455H67.9645V52H65.2827ZM66.6463 31.6364C66.1236 31.6364 65.6728 31.4583 65.294 31.1023C64.9228 30.7462 64.7372 30.3182 64.7372 29.8182C64.7372 29.3182 64.9228 28.8902 65.294 28.5341C65.6728 28.178 66.1236 28 66.6463 28C67.169 28 67.616 28.178 67.9872 28.5341C68.366 28.8902 68.5554 29.3182 68.5554 29.8182C68.5554 30.3182 68.366 30.7462 67.9872 31.1023C67.616 31.4583 67.169 31.6364 66.6463 31.6364ZM85.2401 38.4545L82.831 39.1364C82.6795 38.7348 82.456 38.3447 82.1605 37.9659C81.8726 37.5795 81.4787 37.2614 80.9787 37.0114C80.4787 36.7614 79.8385 36.6364 79.0582 36.6364C77.9901 36.6364 77.0999 36.8826 76.3878 37.375C75.6832 37.8598 75.331 38.4773 75.331 39.2273C75.331 39.8939 75.5734 40.4205 76.0582 40.8068C76.5431 41.1932 77.3007 41.5152 78.331 41.7727L80.9219 42.4091C82.4825 42.7879 83.6454 43.3674 84.4105 44.1477C85.1757 44.9205 85.5582 45.9167 85.5582 47.1364C85.5582 48.1364 85.2704 49.0303 84.6946 49.8182C84.1264 50.6061 83.331 51.2273 82.3082 51.6818C81.2855 52.1364 80.0961 52.3636 78.7401 52.3636C76.9598 52.3636 75.4863 51.9773 74.3196 51.2045C73.1529 50.4318 72.4143 49.303 72.1037 47.8182L74.6491 47.1818C74.8916 48.1212 75.3499 48.8258 76.0241 49.2955C76.706 49.7652 77.5961 50 78.6946 50C79.9446 50 80.937 49.7348 81.6719 49.2045C82.4143 48.6667 82.7855 48.0227 82.7855 47.2727C82.7855 46.6667 82.5734 46.1591 82.1491 45.75C81.7249 45.3333 81.0734 45.0227 80.1946 44.8182L77.2855 44.1364C75.687 43.7576 74.5128 43.1705 73.7628 42.375C73.0204 41.572 72.6491 40.5682 72.6491 39.3636C72.6491 38.3788 72.9257 37.5076 73.4787 36.75C74.0393 35.9924 74.8007 35.3977 75.7628 34.9659C76.7325 34.5341 77.831 34.3182 79.0582 34.3182C80.7855 34.3182 82.1416 34.697 83.1264 35.4545C84.1188 36.2121 84.8234 37.2121 85.2401 38.4545ZM97.1861 34.5455V36.8182H88.1406V34.5455H97.1861ZM90.777 30.3636H93.4588V47C93.4588 47.7576 93.5687 48.3258 93.7884 48.7045C94.0156 49.0758 94.3035 49.3258 94.652 49.4545C95.008 49.5758 95.383 49.6364 95.777 49.6364C96.0724 49.6364 96.3149 49.6212 96.5043 49.5909C96.6937 49.553 96.8452 49.5227 96.9588 49.5L97.5043 51.9091C97.3224 51.9773 97.0687 52.0455 96.7429 52.1136C96.4171 52.1894 96.0043 52.2273 95.5043 52.2273C94.7467 52.2273 94.0043 52.0644 93.277 51.7386C92.5573 51.4129 91.9588 50.9167 91.4815 50.25C91.0118 49.5833 90.777 48.7424 90.777 47.7273V30.3636ZM101.22 52V34.5455H103.902V52H101.22ZM102.584 31.6364C102.061 31.6364 101.61 31.4583 101.232 31.1023C100.86 30.7462 100.675 30.3182 100.675 29.8182C100.675 29.3182 100.86 28.8902 101.232 28.5341C101.61 28.178 102.061 28 102.584 28C103.107 28 103.554 28.178 103.925 28.5341C104.304 28.8902 104.493 29.3182 104.493 29.8182C104.493 30.3182 104.304 30.7462 103.925 31.1023C103.554 31.4583 103.107 31.6364 102.584 31.6364ZM111.496 41.5V52H108.814V34.5455H111.405V37.2727H111.632C112.041 36.3864 112.662 35.6742 113.496 35.1364C114.329 34.5909 115.405 34.3182 116.723 34.3182C117.905 34.3182 118.939 34.5606 119.825 35.0455C120.712 35.5227 121.401 36.25 121.893 37.2273C122.386 38.197 122.632 39.4242 122.632 40.9091V52H119.95V41.0909C119.95 39.7197 119.594 38.6515 118.882 37.8864C118.17 37.1136 117.193 36.7273 115.95 36.7273C115.094 36.7273 114.329 36.9129 113.655 37.2841C112.988 37.6553 112.462 38.197 112.075 38.9091C111.689 39.6212 111.496 40.4848 111.496 41.5ZM134.578 58.9091C133.283 58.9091 132.169 58.7424 131.237 58.4091C130.305 58.0833 129.529 57.6515 128.908 57.1136C128.294 56.5833 127.805 56.0152 127.442 55.4091L129.578 53.9091C129.821 54.2273 130.127 54.5909 130.499 55C130.87 55.4167 131.377 55.7765 132.021 56.0795C132.673 56.3902 133.525 56.5455 134.578 56.5455C135.987 56.5455 137.15 56.2045 138.067 55.5227C138.983 54.8409 139.442 53.7727 139.442 52.3182V48.7727H139.214C139.018 49.0909 138.737 49.4848 138.374 49.9545C138.018 50.4167 137.502 50.8295 136.828 51.1932C136.161 51.5492 135.26 51.7273 134.124 51.7273C132.714 51.7273 131.449 51.3939 130.328 50.7273C129.214 50.0606 128.332 49.0909 127.68 47.8182C127.036 46.5455 126.714 45 126.714 43.1818C126.714 41.3939 127.029 39.8371 127.658 38.5114C128.286 37.178 129.161 36.1477 130.283 35.4205C131.404 34.6856 132.699 34.3182 134.169 34.3182C135.305 34.3182 136.207 34.5076 136.874 34.8864C137.548 35.2576 138.063 35.6818 138.419 36.1591C138.783 36.6288 139.063 37.0152 139.26 37.3182H139.533V34.5455H142.124V52.5C142.124 54 141.783 55.2197 141.101 56.1591C140.427 57.1061 139.518 57.7992 138.374 58.2386C137.237 58.6856 135.972 58.9091 134.578 58.9091ZM134.487 49.3182C135.563 49.3182 136.472 49.072 137.214 48.5795C137.957 48.0871 138.521 47.3788 138.908 46.4545C139.294 45.5303 139.487 44.4242 139.487 43.1364C139.487 41.8788 139.298 40.7689 138.919 39.8068C138.54 38.8447 137.98 38.0909 137.237 37.5455C136.495 37 135.578 36.7273 134.487 36.7273C133.351 36.7273 132.404 37.0152 131.646 37.5909C130.896 38.1667 130.332 38.9394 129.953 39.9091C129.582 40.8788 129.396 41.9545 129.396 43.1364C129.396 44.3485 129.586 45.4205 129.964 46.3523C130.351 47.2765 130.919 48.0038 131.669 48.5341C132.427 49.0568 133.366 49.3182 134.487 49.3182ZM32.1932 67.7273H35.5568L43.4659 87.0455H43.7386L51.6477 67.7273H55.0114V91H52.375V73.3182H52.1477L44.875 91H42.3295L35.0568 73.3182H34.8295V91H32.1932V67.7273ZM67.3892 91.3636C65.8134 91.3636 64.4309 90.9886 63.2415 90.2386C62.0597 89.4886 61.1354 88.4394 60.4688 87.0909C59.8097 85.7424 59.4801 84.1667 59.4801 82.3636C59.4801 80.5455 59.8097 78.9583 60.4688 77.6023C61.1354 76.2462 62.0597 75.1932 63.2415 74.4432C64.4309 73.6932 65.8134 73.3182 67.3892 73.3182C68.965 73.3182 70.3438 73.6932 71.5256 74.4432C72.715 75.1932 73.6392 76.2462 74.2983 77.6023C74.965 78.9583 75.2983 80.5455 75.2983 82.3636C75.2983 84.1667 74.965 85.7424 74.2983 87.0909C73.6392 88.4394 72.715 89.4886 71.5256 90.2386C70.3438 90.9886 68.965 91.3636 67.3892 91.3636ZM67.3892 88.9545C68.5862 88.9545 69.571 88.6477 70.3438 88.0341C71.1165 87.4205 71.6884 86.6136 72.0597 85.6136C72.4309 84.6136 72.6165 83.5303 72.6165 82.3636C72.6165 81.197 72.4309 80.1098 72.0597 79.1023C71.6884 78.0947 71.1165 77.2803 70.3438 76.6591C69.571 76.0379 68.5862 75.7273 67.3892 75.7273C66.1922 75.7273 65.2074 76.0379 64.4347 76.6591C63.6619 77.2803 63.09 78.0947 62.7188 79.1023C62.3475 80.1098 62.1619 81.197 62.1619 82.3636C62.1619 83.5303 62.3475 84.6136 62.7188 85.6136C63.09 86.6136 63.6619 87.4205 64.4347 88.0341C65.2074 88.6477 66.1922 88.9545 67.3892 88.9545ZM85.983 91.3636C84.5284 91.3636 83.2443 90.9962 82.1307 90.2614C81.017 89.5189 80.1458 88.4735 79.517 87.125C78.8883 85.7689 78.5739 84.1667 78.5739 82.3182C78.5739 80.4848 78.8883 78.8939 79.517 77.5455C80.1458 76.197 81.0208 75.1553 82.142 74.4205C83.2633 73.6856 84.5587 73.3182 86.0284 73.3182C87.1648 73.3182 88.0625 73.5076 88.7216 73.8864C89.3883 74.2576 89.8958 74.6818 90.2443 75.1591C90.6004 75.6288 90.8769 76.0152 91.0739 76.3182H91.3011V67.7273H93.983V91H91.392V88.3182H91.0739C90.8769 88.6364 90.5966 89.0379 90.233 89.5227C89.8693 90 89.3504 90.428 88.6761 90.8068C88.0019 91.178 87.1042 91.3636 85.983 91.3636ZM86.3466 88.9545C87.4223 88.9545 88.3314 88.6742 89.0739 88.1136C89.8163 87.5455 90.3807 86.7614 90.767 85.7614C91.1534 84.7538 91.3466 83.5909 91.3466 82.2727C91.3466 80.9697 91.1572 79.8295 90.7784 78.8523C90.3996 77.8674 89.839 77.1023 89.0966 76.5568C88.3542 76.0038 87.4375 75.7273 86.3466 75.7273C85.2102 75.7273 84.2633 76.0189 83.5057 76.6023C82.7557 77.178 82.1913 77.9621 81.8125 78.9545C81.4413 79.9394 81.2557 81.0455 81.2557 82.2727C81.2557 83.5152 81.4451 84.6439 81.8239 85.6591C82.2102 86.6667 82.7784 87.4697 83.5284 88.0682C84.286 88.6591 85.2254 88.9545 86.3466 88.9545ZM110.267 83.8636V73.5455H112.949V91H110.267V88.0455H110.085C109.676 88.9318 109.04 89.6856 108.176 90.3068C107.313 90.9205 106.222 91.2273 104.903 91.2273C103.812 91.2273 102.843 90.9886 101.994 90.5114C101.146 90.0265 100.479 89.2992 99.9943 88.3295C99.5095 87.3523 99.267 86.1212 99.267 84.6364V73.5455H101.949V84.4545C101.949 85.7273 102.305 86.7424 103.017 87.5C103.737 88.2576 104.653 88.6364 105.767 88.6364C106.434 88.6364 107.112 88.4659 107.801 88.125C108.498 87.7841 109.081 87.2614 109.551 86.5568C110.028 85.8523 110.267 84.9545 110.267 83.8636ZM120.543 67.7273V91H117.861V67.7273H120.543ZM132.773 91.3636C131.091 91.3636 129.64 90.9924 128.42 90.25C127.208 89.5 126.273 88.4545 125.614 87.1136C124.962 85.7652 124.636 84.197 124.636 82.4091C124.636 80.6212 124.962 79.0455 125.614 77.6818C126.273 76.3106 127.189 75.2424 128.364 74.4773C129.545 73.7045 130.924 73.3182 132.5 73.3182C133.409 73.3182 134.307 73.4697 135.193 73.7727C136.08 74.0758 136.886 74.5682 137.614 75.25C138.341 75.9242 138.92 76.8182 139.352 77.9318C139.784 79.0455 140 80.4167 140 82.0455V83.1818H126.545V80.8636H137.273C137.273 79.8788 137.076 79 136.682 78.2273C136.295 77.4545 135.742 76.8447 135.023 76.3977C134.311 75.9508 133.47 75.7273 132.5 75.7273C131.432 75.7273 130.508 75.9924 129.727 76.5227C128.955 77.0455 128.36 77.7273 127.943 78.5682C127.527 79.4091 127.318 80.3106 127.318 81.2727V82.8182C127.318 84.1364 127.545 85.2538 128 86.1705C128.462 87.0795 129.102 87.7727 129.92 88.25C130.739 88.7197 131.689 88.9545 132.773 88.9545C133.477 88.9545 134.114 88.8561 134.682 88.6591C135.258 88.4545 135.754 88.1515 136.17 87.75C136.587 87.3409 136.909 86.8333 137.136 86.2273L139.727 86.9545C139.455 87.8333 138.996 88.6061 138.352 89.2727C137.708 89.9318 136.913 90.447 135.966 90.8182C135.019 91.1818 133.955 91.3636 132.773 91.3636Z" fill="black"/>
</svg>
