<?xml version="1.0" standalone="no"?>
<!DOCTYPE svg PUBLIC "-//W3C//DTD SVG 20010904//EN"
 "http://www.w3.org/TR/2001/REC-SVG-20010904/DTD/svg10.dtd">
<svg version="1.0" xmlns="http://www.w3.org/2000/svg"
 width="527.000000pt" height="194.000000pt" viewBox="0 0 527.000000 194.000000"
 preserveAspectRatio="xMidYMid meet">

<g transform="translate(0.000000,194.000000) scale(0.100000,-0.100000)"
fill="#000000" stroke="none">
<path d="M94 1916 c-17 -8 -40 -26 -52 -41 l-22 -28 0 -877 0 -877 22 -28 c46
-58 -58 -55 1773 -55 l1685 0 862 432 c626 314 868 440 882 460 25 36 26 100
1 135 -16 21 -232 134 -883 461 l-862 432 -1688 0 c-1389 -1 -1692 -3 -1718
-14z m4181 -543 c426 -214 775 -390 775 -393 0 -3 -278 -144 -617 -314 -340
-170 -690 -346 -778 -392 l-159 -84 -1658 0 -1658 0 0 785 0 785 1660 0 1660
0 775 -387z"/>
</g>
</svg>
