<?xml version="1.0" standalone="no"?>
<!DOCTYPE svg PUBLIC "-//W3C//DTD SVG 20010904//EN"
 "http://www.w3.org/TR/2001/REC-SVG-20010904/DTD/svg10.dtd">
<svg version="1.0" xmlns="http://www.w3.org/2000/svg"
 width="599.000000pt" height="328.000000pt" viewBox="0 0 599.000000 328.000000"
 preserveAspectRatio="xMidYMid meet">

<g transform="translate(0.000000,328.000000) scale(0.100000,-0.100000)"
fill="#000000" stroke="none">
<path d="M1363 3255 c-18 -8 -42 -29 -53 -47 -19 -31 -20 -50 -20 -295 l0
-262 -592 -3 c-570 -3 -594 -4 -626 -23 -89 -54 -89 -181 1 -235 31 -19 55
-20 625 -20 l592 0 0 -295 0 -295 -585 0 c-477 0 -592 -3 -619 -14 -106 -44
-106 -208 0 -252 27 -11 142 -14 619 -14 l585 0 0 -295 0 -295 -590 0 c-642 0
-624 2 -669 -56 -48 -61 -28 -158 41 -199 32 -19 56 -20 626 -23 l592 -3 0
-262 c0 -239 2 -265 19 -293 42 -69 -84 -64 1681 -64 1765 0 1639 -5 1681 64
17 28 19 54 19 293 l0 262 593 3 c569 3 593 4 625 23 89 54 89 181 -1 235 -31
19 -55 20 -624 20 l-593 0 0 295 0 295 588 0 c667 0 636 -4 680 81 26 51 23
95 -10 142 -41 58 -35 57 -673 57 l-585 0 0 295 0 295 593 0 c569 0 593 1 624
20 90 54 90 181 1 235 -32 19 -56 20 -625 23 l-593 3 0 262 c0 245 -1 264 -20
295 -41 66 71 62 -1682 62 -1345 -1 -1598 -3 -1625 -15z m3057 -1615 l0 -1350
-1430 0 -1430 0 0 1350 0 1350 1430 0 1430 0 0 -1350z"/>
<path d="M2008 2881 c-207 -66 -338 -246 -338 -461 0 -139 49 -249 155 -349
277 -262 737 -99 797 282 37 238 -128 482 -363 536 -69 16 -187 12 -251 -8z
m198 -266 c160 -47 194 -262 56 -359 -109 -77 -269 -21 -307 107 -38 128 51
253 191 266 6 1 33 -6 60 -14z"/>
</g>
</svg>
