<svg width="170" height="120" viewBox="0 0 170 120" fill="none" xmlns="http://www.w3.org/2000/svg">
<rect x="1.5" y="1.5" width="167" height="117" fill="white" stroke="black" stroke-width="3"/>
<path d="M13.3314 47.5455H17.0104L25.661 68.6747H25.9593L34.6098 47.5455H38.2888V73H35.4053V53.6605H35.1567L27.2021 73H24.4181L16.4635 53.6605H16.2149V73H13.3314V47.5455ZM65.9464 60.2727C65.9464 62.9574 65.4616 65.2775 64.4922 67.233C63.5227 69.1884 62.1928 70.6965 60.5025 71.7571C58.8121 72.8177 56.8815 73.348 54.7106 73.348C52.5397 73.348 50.609 72.8177 48.9187 71.7571C47.2283 70.6965 45.8984 69.1884 44.929 67.233C43.9595 65.2775 43.4748 62.9574 43.4748 60.2727C43.4748 57.5881 43.9595 55.268 44.929 53.3125C45.8984 51.357 47.2283 49.849 48.9187 48.7884C50.609 47.7277 52.5397 47.1974 54.7106 47.1974C56.8815 47.1974 58.8121 47.7277 60.5025 48.7884C62.1928 49.849 63.5227 51.357 64.4922 53.3125C65.4616 55.268 65.9464 57.5881 65.9464 60.2727ZM62.9634 60.2727C62.9634 58.0687 62.5947 56.2085 61.8572 54.6921C61.1281 53.1758 60.1379 52.0282 58.8867 51.2493C57.6438 50.4704 56.2518 50.081 54.7106 50.081C53.1694 50.081 51.7732 50.4704 50.522 51.2493C49.2791 52.0282 48.2889 53.1758 47.5515 54.6921C46.8223 56.2085 46.4577 58.0687 46.4577 60.2727C46.4577 62.4768 46.8223 64.337 47.5515 65.8533C48.2889 67.3697 49.2791 68.5173 50.522 69.2962C51.7732 70.075 53.1694 70.4645 54.7106 70.4645C56.2518 70.4645 57.6438 70.075 58.8867 69.2962C60.1379 68.5173 61.1281 67.3697 61.8572 65.8533C62.5947 64.337 62.9634 62.4768 62.9634 60.2727ZM78.9844 73H71.1293V47.5455H79.3324C81.8016 47.5455 83.9145 48.055 85.6712 49.0742C87.4278 50.0851 88.7743 51.5393 89.7106 53.4368C90.6469 55.326 91.1151 57.5881 91.1151 60.223C91.1151 62.8745 90.6428 65.1573 89.6982 67.0714C88.7536 68.9772 87.3781 70.4438 85.5717 71.4712C83.7654 72.4904 81.5696 73 78.9844 73ZM74.2116 70.2656H78.7855C80.8902 70.2656 82.6344 69.8596 84.0181 69.0476C85.4019 68.2356 86.4335 67.0797 87.1129 65.5799C87.7924 64.0801 88.1321 62.2945 88.1321 60.223C88.1321 58.1681 87.7965 56.399 87.1254 54.9158C86.4542 53.4244 85.4516 52.2809 84.1175 51.4854C82.7835 50.6817 81.1222 50.2798 79.1335 50.2798H74.2116V70.2656ZM112.99 47.5455H116.072V64.3991C116.072 66.1392 115.662 67.6928 114.842 69.06C114.03 70.4189 112.882 71.492 111.399 72.2791C109.916 73.058 108.176 73.4474 106.179 73.4474C104.182 73.4474 102.442 73.058 100.959 72.2791C99.4756 71.492 98.3239 70.4189 97.5036 69.06C96.6915 67.6928 96.2855 66.1392 96.2855 64.3991V47.5455H99.3679V64.1506C99.3679 65.3935 99.6413 66.4996 100.188 67.4691C100.735 68.4303 101.514 69.1884 102.525 69.7436C103.544 70.2905 104.762 70.5639 106.179 70.5639C107.596 70.5639 108.814 70.2905 109.833 69.7436C110.852 69.1884 111.631 68.4303 112.17 67.4691C112.717 66.4996 112.99 65.3935 112.99 64.1506V47.5455ZM122.228 73V47.5455H125.31V70.2656H137.143V73H122.228ZM141.915 73V47.5455H157.278V50.2798H144.998V58.8807H156.482V61.6151H144.998V70.2656H157.476V73H141.915Z" fill="black"/>
</svg>
