<?xml version="1.0" standalone="no"?>
<!DOCTYPE svg PUBLIC "-//W3C//DTD SVG 20010904//EN"
 "http://www.w3.org/TR/2001/REC-SVG-20010904/DTD/svg10.dtd">
<svg version="1.0" xmlns="http://www.w3.org/2000/svg"
 width="212.000000pt" height="287.000000pt" viewBox="0 0 212.000000 287.000000"
 preserveAspectRatio="xMidYMid meet">

<g transform="translate(0.000000,287.000000) scale(0.100000,-0.100000)"
fill="#000000" stroke="none">
<path d="M340 2625 l0 -245 -170 0 -170 0 0 -30 0 -30 170 0 170 0 0 -275 0
-275 -170 0 -170 0 0 -30 0 -30 170 0 170 0 0 -275 0 -275 -170 0 -170 0 0
-30 0 -30 170 0 170 0 0 -275 0 -275 -170 0 -170 0 0 -30 0 -30 170 0 170 0 0
-245 0 -245 725 362 725 363 0 337 0 338 165 0 165 0 0 30 0 30 -165 0 -165 0
0 343 0 342 -350 175 -350 175 0 187 0 188 -30 0 -30 0 0 -170 c0 -93 -2 -170
-5 -170 -3 0 -158 77 -345 170 l-340 170 0 -245z m1390 -1190 l0 -670 -665
-333 -665 -332 0 1335 0 1335 665 -332 665 -333 0 -670z"/>
</g>
</svg>
