<?xml version="1.0" standalone="no"?>
<!DOCTYPE svg PUBLIC "-//W3C//DTD SVG 20010904//EN"
 "http://www.w3.org/TR/2001/REC-SVG-20010904/DTD/svg10.dtd">
<svg version="1.0" xmlns="http://www.w3.org/2000/svg"
 width="550.000000pt" height="304.000000pt" viewBox="0 0 550.000000 304.000000"
 preserveAspectRatio="xMidYMid meet">

<g transform="translate(0.000000,304.000000) scale(0.100000,-0.100000)"
fill="#000000" stroke="none">
<path d="M1530 2745 l0 -275 -712 0 c-463 0 -726 -4 -750 -11 -38 -10 -68 -48
-68 -84 0 -36 30 -74 68 -84 24 -7 287 -11 750 -11 l712 0 0 -760 0 -760 -712
0 c-469 0 -726 -4 -751 -11 -66 -18 -86 -100 -37 -149 20 -20 37 -20 760 -20
l740 0 0 -280 0 -281 848 4 c836 3 848 3 947 26 578 130 1010 539 1155 1094
l23 87 57 -54 c189 -181 471 -181 661 1 58 55 107 135 130 211 11 39 15 42 46
42 46 0 93 46 93 90 0 44 -47 90 -93 90 -31 0 -35 3 -46 43 -23 75 -72 155
-130 210 -190 182 -472 182 -661 1 l-57 -54 -23 87 c-145 555 -576 964 -1155
1094 -99 23 -111 23 -947 26 l-848 4 0 -276z m1750 11 c517 -121 878 -486 987
-996 25 -118 25 -362 0 -480 -103 -484 -459 -862 -922 -979 -153 -38 -218 -41
-906 -41 l-669 0 0 1260 0 1261 718 -4 c641 -3 725 -5 792 -21z m1756 -910
c77 -35 145 -103 181 -180 24 -52 28 -74 28 -146 0 -72 -4 -94 -28 -146 -36
-77 -104 -145 -182 -181 -51 -24 -73 -28 -145 -28 -72 0 -94 4 -145 28 -78 36
-146 104 -182 181 -24 52 -28 74 -28 146 0 72 4 94 28 145 86 183 293 263 473
181z"/>
</g>
</svg>
