<svg width="170" height="120" viewBox="0 0 170 120" fill="none" xmlns="http://www.w3.org/2000/svg">
<rect x="1.5" y="1.5" width="167" height="117" fill="white" stroke="black" stroke-width="3"/>
<path d="M71.4134 28.7273V52H68.6861L56.0043 33.7273H55.777V52H52.9588V28.7273H55.6861L68.4134 47.0455H68.6406V28.7273H71.4134ZM84.0071 52.3636C82.3253 52.3636 80.8745 51.9924 79.6548 51.25C78.4427 50.5 77.5071 49.4545 76.848 48.1136C76.1965 46.7652 75.8707 45.197 75.8707 43.4091C75.8707 41.6212 76.1965 40.0455 76.848 38.6818C77.5071 37.3106 78.4238 36.2424 79.598 35.4773C80.7798 34.7045 82.1586 34.3182 83.7344 34.3182C84.6435 34.3182 85.5412 34.4697 86.4276 34.7727C87.3139 35.0758 88.1207 35.5682 88.848 36.25C89.5753 36.9242 90.1548 37.8182 90.5866 38.9318C91.0185 40.0455 91.2344 41.4167 91.2344 43.0455V44.1818H77.7798V41.8636H88.5071C88.5071 40.8788 88.3101 40 87.9162 39.2273C87.5298 38.4545 86.9768 37.8447 86.2571 37.3977C85.545 36.9508 84.7041 36.7273 83.7344 36.7273C82.6662 36.7273 81.742 36.9924 80.9616 37.5227C80.1889 38.0455 79.5942 38.7273 79.1776 39.5682C78.7609 40.4091 78.5526 41.3106 78.5526 42.2727V43.8182C78.5526 45.1364 78.7798 46.2538 79.2344 47.1705C79.6965 48.0795 80.3366 48.7727 81.1548 49.25C81.973 49.7197 82.9238 49.9545 84.0071 49.9545C84.7116 49.9545 85.348 49.8561 85.9162 49.6591C86.492 49.4545 86.9882 49.1515 87.4048 48.75C87.8215 48.3409 88.1435 47.8333 88.3707 47.2273L90.9616 47.9545C90.6889 48.8333 90.2306 49.6061 89.5866 50.2727C88.9427 50.9318 88.1473 51.447 87.2003 51.8182C86.2533 52.1818 85.1889 52.3636 84.0071 52.3636ZM99.2685 52L93.9503 34.5455H96.7685L100.541 47.9091H100.723L104.45 34.5455H107.314L110.996 47.8636H111.178L114.95 34.5455H117.768L112.45 52H109.814L105.996 38.5909H105.723L101.905 52H99.2685ZM31.1932 67.7273H34.5568L42.4659 87.0455H42.7386L50.6477 67.7273H54.0114V91H51.375V73.3182H51.1477L43.875 91H41.3295L34.0568 73.3182H33.8295V91H31.1932V67.7273ZM66.3892 91.3636C64.8134 91.3636 63.4309 90.9886 62.2415 90.2386C61.0597 89.4886 60.1354 88.4394 59.4688 87.0909C58.8097 85.7424 58.4801 84.1667 58.4801 82.3636C58.4801 80.5455 58.8097 78.9583 59.4688 77.6023C60.1354 76.2462 61.0597 75.1932 62.2415 74.4432C63.4309 73.6932 64.8134 73.3182 66.3892 73.3182C67.965 73.3182 69.3438 73.6932 70.5256 74.4432C71.715 75.1932 72.6392 76.2462 73.2983 77.6023C73.965 78.9583 74.2983 80.5455 74.2983 82.3636C74.2983 84.1667 73.965 85.7424 73.2983 87.0909C72.6392 88.4394 71.715 89.4886 70.5256 90.2386C69.3438 90.9886 67.965 91.3636 66.3892 91.3636ZM66.3892 88.9545C67.5862 88.9545 68.571 88.6477 69.3438 88.0341C70.1165 87.4205 70.6884 86.6136 71.0597 85.6136C71.4309 84.6136 71.6165 83.5303 71.6165 82.3636C71.6165 81.197 71.4309 80.1098 71.0597 79.1023C70.6884 78.0947 70.1165 77.2803 69.3438 76.6591C68.571 76.0379 67.5862 75.7273 66.3892 75.7273C65.1922 75.7273 64.2074 76.0379 63.4347 76.6591C62.6619 77.2803 62.09 78.0947 61.7188 79.1023C61.3475 80.1098 61.1619 81.197 61.1619 82.3636C61.1619 83.5303 61.3475 84.6136 61.7188 85.6136C62.09 86.6136 62.6619 87.4205 63.4347 88.0341C64.2074 88.6477 65.1922 88.9545 66.3892 88.9545ZM84.983 91.3636C83.5284 91.3636 82.2443 90.9962 81.1307 90.2614C80.017 89.5189 79.1458 88.4735 78.517 87.125C77.8883 85.7689 77.5739 84.1667 77.5739 82.3182C77.5739 80.4848 77.8883 78.8939 78.517 77.5455C79.1458 76.197 80.0208 75.1553 81.142 74.4205C82.2633 73.6856 83.5587 73.3182 85.0284 73.3182C86.1648 73.3182 87.0625 73.5076 87.7216 73.8864C88.3883 74.2576 88.8958 74.6818 89.2443 75.1591C89.6004 75.6288 89.8769 76.0152 90.0739 76.3182H90.3011V67.7273H92.983V91H90.392V88.3182H90.0739C89.8769 88.6364 89.5966 89.0379 89.233 89.5227C88.8693 90 88.3504 90.428 87.6761 90.8068C87.0019 91.178 86.1042 91.3636 84.983 91.3636ZM85.3466 88.9545C86.4223 88.9545 87.3314 88.6742 88.0739 88.1136C88.8163 87.5455 89.3807 86.7614 89.767 85.7614C90.1534 84.7538 90.3466 83.5909 90.3466 82.2727C90.3466 80.9697 90.1572 79.8295 89.7784 78.8523C89.3996 77.8674 88.839 77.1023 88.0966 76.5568C87.3542 76.0038 86.4375 75.7273 85.3466 75.7273C84.2102 75.7273 83.2633 76.0189 82.5057 76.6023C81.7557 77.178 81.1913 77.9621 80.8125 78.9545C80.4413 79.9394 80.2557 81.0455 80.2557 82.2727C80.2557 83.5152 80.4451 84.6439 80.8239 85.6591C81.2102 86.6667 81.7784 87.4697 82.5284 88.0682C83.286 88.6591 84.2254 88.9545 85.3466 88.9545ZM109.267 83.8636V73.5455H111.949V91H109.267V88.0455H109.085C108.676 88.9318 108.04 89.6856 107.176 90.3068C106.313 90.9205 105.222 91.2273 103.903 91.2273C102.812 91.2273 101.843 90.9886 100.994 90.5114C100.146 90.0265 99.4792 89.2992 98.9943 88.3295C98.5095 87.3523 98.267 86.1212 98.267 84.6364V73.5455H100.949V84.4545C100.949 85.7273 101.305 86.7424 102.017 87.5C102.737 88.2576 103.653 88.6364 104.767 88.6364C105.434 88.6364 106.112 88.4659 106.801 88.125C107.498 87.7841 108.081 87.2614 108.551 86.5568C109.028 85.8523 109.267 84.9545 109.267 83.8636ZM119.543 67.7273V91H116.861V67.7273H119.543ZM131.773 91.3636C130.091 91.3636 128.64 90.9924 127.42 90.25C126.208 89.5 125.273 88.4545 124.614 87.1136C123.962 85.7652 123.636 84.197 123.636 82.4091C123.636 80.6212 123.962 79.0455 124.614 77.6818C125.273 76.3106 126.189 75.2424 127.364 74.4773C128.545 73.7045 129.924 73.3182 131.5 73.3182C132.409 73.3182 133.307 73.4697 134.193 73.7727C135.08 74.0758 135.886 74.5682 136.614 75.25C137.341 75.9242 137.92 76.8182 138.352 77.9318C138.784 79.0455 139 80.4167 139 82.0455V83.1818H125.545V80.8636H136.273C136.273 79.8788 136.076 79 135.682 78.2273C135.295 77.4545 134.742 76.8447 134.023 76.3977C133.311 75.9508 132.47 75.7273 131.5 75.7273C130.432 75.7273 129.508 75.9924 128.727 76.5227C127.955 77.0455 127.36 77.7273 126.943 78.5682C126.527 79.4091 126.318 80.3106 126.318 81.2727V82.8182C126.318 84.1364 126.545 85.2538 127 86.1705C127.462 87.0795 128.102 87.7727 128.92 88.25C129.739 88.7197 130.689 88.9545 131.773 88.9545C132.477 88.9545 133.114 88.8561 133.682 88.6591C134.258 88.4545 134.754 88.1515 135.17 87.75C135.587 87.3409 135.909 86.8333 136.136 86.2273L138.727 86.9545C138.455 87.8333 137.996 88.6061 137.352 89.2727C136.708 89.9318 135.913 90.447 134.966 90.8182C134.019 91.1818 132.955 91.3636 131.773 91.3636Z" fill="black"/>
</svg>
