<?xml version="1.0" standalone="no"?>
<!DOCTYPE svg PUBLIC "-//W3C//DTD SVG 20010904//EN"
 "http://www.w3.org/TR/2001/REC-SVG-20010904/DTD/svg10.dtd">
<svg version="1.0" xmlns="http://www.w3.org/2000/svg"
 width="560.000000pt" height="302.000000pt" viewBox="0 0 560.000000 302.000000"
 preserveAspectRatio="xMidYMid meet">

<g transform="translate(0.000000,302.000000) scale(0.100000,-0.100000)"
fill="#000000" stroke="none">
<path d="M1297 2928 c36 -46 93 -123 125 -172 58 -88 168 -278 168 -290 0 -3
-334 -6 -742 -6 -484 0 -756 -4 -780 -11 -38 -10 -68 -48 -68 -84 0 -36 30
-74 68 -84 24 -7 309 -11 824 -11 l786 0 31 -85 c38 -105 75 -249 98 -380 23
-138 23 -451 0 -590 -21 -120 -67 -297 -103 -394 l-26 -71 -787 0 c-520 0
-799 -4 -824 -11 -66 -18 -86 -100 -37 -149 20 -20 37 -20 790 -20 505 0 770
-3 770 -10 0 -36 -192 -342 -293 -468 l-67 -83 847 4 c837 3 849 3 948 26 305
68 555 203 764 412 118 118 201 234 276 384 65 132 104 238 126 343 l12 58 62
-62 c68 -67 154 -114 243 -133 237 -49 474 89 554 324 l17 50 226 5 227 5 24
28 c31 36 31 78 0 114 l-24 28 -227 5 -226 5 -17 50 c-97 286 -424 418 -686
277 -28 -15 -78 -54 -112 -88 l-61 -60 -12 59 c-36 174 -143 409 -255 558
-224 298 -533 495 -911 580 -99 23 -111 23 -948 26 l-847 4 67 -83z m1683
-182 c516 -121 878 -486 987 -996 25 -118 25 -362 0 -480 -103 -484 -459 -862
-922 -979 -149 -37 -222 -41 -790 -41 l-553 0 78 153 c134 260 213 489 261
764 33 185 33 501 0 686 -48 275 -127 504 -261 765 l-79 153 602 -4 c529 -3
611 -6 677 -21z m1772 -909 c75 -35 129 -86 169 -159 33 -60 34 -67 34 -168 0
-101 -1 -108 -34 -168 -40 -74 -93 -124 -171 -161 -47 -22 -69 -26 -145 -26
-76 0 -98 4 -145 26 -148 71 -231 222 -210 381 19 139 131 263 267 298 63 16
176 5 235 -23z"/>
</g>
</svg>
