<?xml version="1.0" standalone="no"?>
<!DOCTYPE svg PUBLIC "-//W3C//DTD SVG 20010904//EN"
 "http://www.w3.org/TR/2001/REC-SVG-20010904/DTD/svg10.dtd">
<svg version="1.0" xmlns="http://www.w3.org/2000/svg"
 width="561.000000pt" height="337.000000pt" viewBox="0 0 561.000000 337.000000"
 preserveAspectRatio="xMidYMid meet">

<g transform="translate(0.000000,337.000000) scale(0.100000,-0.100000)"
fill="#000000" stroke="none">
<path d="M1700 2570 l0 -790 -816 0 -816 0 -29 -29 c-39 -40 -39 -82 0 -122
l29 -29 816 0 816 0 0 -790 c0 -454 4 -790 9 -790 5 0 494 364 1087 810 592
445 1079 808 1081 807 2 -2 10 -30 18 -62 67 -256 330 -415 580 -350 164 43
297 171 345 333 l13 42 349 0 350 0 29 29 c39 40 39 82 0 122 l-29 29 -350 0
-349 0 -13 43 c-48 161 -181 289 -345 332 -250 65 -513 -94 -580 -350 -8 -32
-16 -60 -18 -61 -2 -2 -489 361 -1081 806 -593 446 -1082 810 -1087 810 -5 0
-9 -337 -9 -790z m1053 -288 c427 -321 777 -588 777 -592 0 -6 -1529 -1161
-1567 -1184 -10 -6 -13 234 -13 1184 0 950 3 1190 13 1184 6 -4 362 -271 790
-592z m1753 -266 c77 -35 145 -103 181 -180 24 -52 28 -74 28 -146 0 -72 -4
-94 -28 -146 -36 -77 -104 -145 -182 -181 -51 -24 -73 -28 -145 -28 -72 0 -94
4 -145 28 -78 36 -146 104 -182 181 -24 52 -28 74 -28 146 0 72 4 94 28 145
86 183 293 263 473 181z"/>
</g>
</svg>
