<?xml version="1.0" standalone="no"?>
<!DOCTYPE svg PUBLIC "-//W3C//DTD SVG 20010904//EN"
 "http://www.w3.org/TR/2001/REC-SVG-20010904/DTD/svg10.dtd">
<svg version="1.0" xmlns="http://www.w3.org/2000/svg"
 width="560.000000pt" height="303.000000pt" viewBox="0 0 560.000000 303.000000"
 preserveAspectRatio="xMidYMid meet">

<g transform="translate(0.000000,303.000000) scale(0.100000,-0.100000)"
fill="#000000" stroke="none">
<path d="M1307 2928 c36 -46 93 -123 125 -172 58 -88 168 -278 168 -290 0 -3
-334 -6 -742 -6 -484 0 -756 -4 -780 -11 -38 -10 -68 -48 -68 -84 0 -36 30
-74 68 -84 24 -7 309 -11 824 -11 l786 0 31 -85 c38 -105 75 -249 98 -380 23
-138 23 -451 0 -590 -21 -120 -67 -297 -103 -394 l-26 -71 -787 0 c-520 0
-799 -4 -824 -11 -66 -18 -86 -100 -37 -149 20 -20 37 -20 790 -20 505 0 770
-3 770 -10 0 -36 -192 -342 -293 -468 l-67 -83 847 4 c818 3 851 4 945 25 605
131 1057 584 1177 1179 12 55 21 117 21 136 0 73 -58 67 657 67 l645 0 29 29
c39 40 39 82 0 122 l-29 29 -645 0 c-715 0 -657 -6 -657 67 0 55 -38 229 -72
328 -16 50 -57 142 -89 205 -208 402 -580 683 -1038 783 -92 20 -128 21 -944
24 l-847 4 67 -83z m1683 -182 c516 -121 878 -486 987 -996 25 -118 25 -362 0
-480 -103 -484 -459 -862 -922 -979 -149 -37 -222 -41 -790 -41 l-553 0 78
153 c134 260 213 489 261 764 33 185 33 501 0 686 -48 275 -127 504 -261 765
l-79 153 602 -4 c529 -3 611 -6 677 -21z"/>
</g>
</svg>
