<?xml version="1.0" standalone="no"?>
<!DOCTYPE svg PUBLIC "-//W3C//DTD SVG 20010904//EN"
 "http://www.w3.org/TR/2001/REC-SVG-20010904/DTD/svg10.dtd">
<svg version="1.0" xmlns="http://www.w3.org/2000/svg"
 width="529.000000pt" height="195.000000pt" viewBox="0 0 529.000000 195.000000"
 preserveAspectRatio="xMidYMid meet">

<g transform="translate(0.000000,195.000000) scale(0.100000,-0.100000)"
fill="#000000" stroke="none">
<path d="M918 1508 c-626 -314 -868 -440 -882 -460 -25 -36 -26 -100 -1 -135
16 -21 232 -134 883 -461 l862 -432 1685 0 c1831 0 1727 -3 1773 55 l22 28 0
877 0 877 -22 28 c-46 58 58 55 -1773 55 l-1685 0 -862 -432z m4182 -533 l0
-785 -1660 0 -1660 0 -775 387 c-426 214 -775 390 -775 393 0 3 294 152 653
332 358 180 706 356 772 391 l120 65 1663 1 1662 1 0 -785z"/>
</g>
</svg>
