<svg width="150" height="220" viewBox="0 0 150 220" fill="none" xmlns="http://www.w3.org/2000/svg">
<rect x="21.5" y="21.5" width="107" height="197" fill="white" stroke="black" stroke-width="3"/>
<path d="M64.6077 22L75 40L85.3923 22H64.6077Z" fill="white" stroke="black" stroke-width="3"/>
<line x1="75.5" y1="20" x2="75.5" stroke="black" stroke-width="3"/>
<line x1="20" y1="59.5" y2="59.5" stroke="black" stroke-width="3"/>
<line x1="20" y1="121.5" y2="121.5" stroke="black" stroke-width="3"/>
<line x1="20" y1="183.5" y2="183.5" stroke="black" stroke-width="3"/>
<line x1="130" y1="120.5" x2="150" y2="120.5" stroke="black" stroke-width="3"/>
<path d="M29.4835 124.128C29.1378 124.128 28.8242 124.063 28.5424 123.933C28.2607 123.8 28.037 123.609 27.8713 123.361C27.7056 123.11 27.6227 122.807 27.6227 122.452C27.6227 122.139 27.6842 121.886 27.8074 121.692C27.9305 121.495 28.095 121.341 28.301 121.23C28.5069 121.119 28.7342 121.036 28.9828 120.982C29.2337 120.925 29.4859 120.88 29.7392 120.847C30.0706 120.804 30.3393 120.772 30.5453 120.751C30.7536 120.727 30.9051 120.688 30.9998 120.634C31.0969 120.579 31.1454 120.484 31.1454 120.349V120.321C31.1454 119.971 31.0495 119.698 30.8578 119.504C30.6684 119.31 30.3807 119.213 29.9949 119.213C29.5948 119.213 29.2811 119.301 29.0538 119.476C28.8265 119.651 28.6667 119.838 28.5744 120.037L27.7789 119.753C27.921 119.421 28.1104 119.163 28.3471 118.979C28.5862 118.792 28.8467 118.661 29.1284 118.588C29.4125 118.512 29.6918 118.474 29.9664 118.474C30.1416 118.474 30.3429 118.496 30.5701 118.538C30.7998 118.579 31.0211 118.663 31.2342 118.79C31.4496 118.918 31.6284 119.111 31.7704 119.369C31.9125 119.627 31.9835 119.973 31.9835 120.406V124H31.1454V123.261H31.1028C31.046 123.38 30.9513 123.506 30.8187 123.641C30.6861 123.776 30.5098 123.891 30.2896 123.986C30.0694 124.08 29.8007 124.128 29.4835 124.128ZM29.6113 123.375C29.9428 123.375 30.2221 123.31 30.4494 123.18C30.679 123.049 30.8519 122.881 30.9679 122.675C31.0862 122.469 31.1454 122.253 31.1454 122.026V121.259C31.1099 121.301 31.0318 121.34 30.911 121.376C30.7927 121.409 30.6554 121.438 30.4991 121.464C30.3452 121.488 30.1949 121.509 30.0481 121.528C29.9037 121.545 29.7865 121.559 29.6966 121.571C29.4788 121.599 29.2752 121.646 29.0858 121.71C28.8987 121.771 28.7472 121.865 28.6312 121.99C28.5176 122.113 28.4608 122.281 28.4608 122.494C28.4608 122.786 28.5685 123.006 28.7839 123.155C29.0017 123.302 29.2775 123.375 29.6113 123.375ZM35.5728 124.114C35.1183 124.114 34.717 123.999 34.369 123.769C34.021 123.537 33.7487 123.21 33.5522 122.789C33.3557 122.365 33.2575 121.865 33.2575 121.287C33.2575 120.714 33.3557 120.217 33.5522 119.795C33.7487 119.374 34.0221 119.049 34.3725 118.819C34.7229 118.589 35.1277 118.474 35.587 118.474C35.9421 118.474 36.2227 118.534 36.4286 118.652C36.637 118.768 36.7956 118.901 36.9045 119.05C37.0157 119.196 37.1022 119.317 37.1637 119.412H37.2347V116.727H38.0728V124H37.2631V123.162H37.1637C37.1022 123.261 37.0146 123.387 36.9009 123.538C36.7873 123.687 36.6251 123.821 36.4144 123.94C36.2037 124.056 35.9232 124.114 35.5728 124.114ZM35.6864 123.361C36.0226 123.361 36.3067 123.273 36.5387 123.098C36.7707 122.92 36.9471 122.675 37.0678 122.363C37.1886 122.048 37.2489 121.685 37.2489 121.273C37.2489 120.866 37.1897 120.509 37.0714 120.204C36.953 119.896 36.7778 119.657 36.5458 119.487C36.3138 119.314 36.0273 119.227 35.6864 119.227C35.3313 119.227 35.0354 119.318 34.7987 119.501C34.5643 119.681 34.3879 119.926 34.2695 120.236C34.1535 120.544 34.0955 120.889 34.0955 121.273C34.0955 121.661 34.1547 122.014 34.2731 122.331C34.3938 122.646 34.5714 122.897 34.8058 123.084C35.0425 123.268 35.3361 123.361 35.6864 123.361ZM41.7837 124.114C41.3292 124.114 40.9279 123.999 40.5799 123.769C40.2319 123.537 39.9596 123.21 39.7631 122.789C39.5666 122.365 39.4684 121.865 39.4684 121.287C39.4684 120.714 39.5666 120.217 39.7631 119.795C39.9596 119.374 40.2331 119.049 40.5835 118.819C40.9338 118.589 41.3387 118.474 41.7979 118.474C42.1531 118.474 42.4336 118.534 42.6396 118.652C42.8479 118.768 43.0065 118.901 43.1154 119.05C43.2267 119.196 43.3131 119.317 43.3746 119.412H43.4457V116.727H44.2837V124H43.4741V123.162H43.3746C43.3131 123.261 43.2255 123.387 43.1119 123.538C42.9982 123.687 42.8361 123.821 42.6254 123.94C42.4147 124.056 42.1341 124.114 41.7837 124.114ZM41.8974 123.361C42.2335 123.361 42.5176 123.273 42.7496 123.098C42.9817 122.92 43.158 122.675 43.2788 122.363C43.3995 122.048 43.4599 121.685 43.4599 121.273C43.4599 120.866 43.4007 120.509 43.2823 120.204C43.1639 119.896 42.9888 119.657 42.7567 119.487C42.5247 119.314 42.2383 119.227 41.8974 119.227C41.5423 119.227 41.2463 119.318 41.0096 119.501C40.7752 119.681 40.5988 119.926 40.4805 120.236C40.3645 120.544 40.3065 120.889 40.3065 121.273C40.3065 121.661 40.3656 122.014 40.484 122.331C40.6048 122.646 40.7823 122.897 41.0167 123.084C41.2534 123.268 41.547 123.361 41.8974 123.361ZM45.935 124V118.545H46.7447V119.369H46.8015C46.9009 119.099 47.0808 118.88 47.3413 118.712C47.6017 118.544 47.8952 118.46 48.2219 118.46C48.2835 118.46 48.3604 118.461 48.4528 118.464C48.5451 118.466 48.6149 118.47 48.6623 118.474V119.327C48.6339 119.32 48.5688 119.309 48.467 119.295C48.3675 119.278 48.2622 119.27 48.1509 119.27C47.8858 119.27 47.649 119.326 47.4407 119.437C47.2347 119.546 47.0714 119.697 46.9506 119.891C46.8323 120.083 46.7731 120.302 46.7731 120.548V124H45.935Z" fill="black"/>
<path d="M71.2837 53.1136C70.7724 53.1136 70.332 52.9929 69.9627 52.7514C69.5934 52.5099 69.3093 52.1773 69.1104 51.7536C68.9116 51.3298 68.8121 50.8456 68.8121 50.3011C68.8121 49.7472 68.9139 49.2583 69.1175 48.8345C69.3235 48.4084 69.61 48.0758 69.9769 47.8366C70.3462 47.5952 70.7771 47.4744 71.2695 47.4744C71.6531 47.4744 71.9987 47.5455 72.3065 47.6875C72.6142 47.8295 72.8664 48.0284 73.0629 48.2841C73.2594 48.5398 73.3813 48.8381 73.4286 49.179H72.5906C72.5266 48.9304 72.3846 48.7102 72.1644 48.5185C71.9466 48.3243 71.6531 48.2273 71.2837 48.2273C70.957 48.2273 70.6706 48.3125 70.4244 48.483C70.1805 48.651 69.9899 48.889 69.8526 49.1967C69.7177 49.5021 69.6502 49.8608 69.6502 50.2727C69.6502 50.6941 69.7165 51.0611 69.8491 51.3736C69.984 51.6861 70.1734 51.9287 70.4173 52.1016C70.6635 52.2744 70.9523 52.3608 71.2837 52.3608C71.5015 52.3608 71.6992 52.3229 71.8768 52.2472C72.0543 52.1714 72.2047 52.0625 72.3278 51.9205C72.4509 51.7784 72.5385 51.608 72.5906 51.4091H73.4286C73.3813 51.7311 73.2641 52.0211 73.0771 52.2791C72.8924 52.5348 72.6474 52.7384 72.342 52.8899C72.0389 53.0391 71.6862 53.1136 71.2837 53.1136ZM75.4918 45.7273V53H74.6538V45.7273H75.4918ZM77.8081 51.0114L77.7939 49.9744H77.9643L80.3507 47.5455H81.3876L78.845 50.1165H78.774L77.8081 51.0114ZM77.0268 53V45.7273H77.8649V53H77.0268ZM80.4927 53L78.362 50.3011L78.9586 49.7188L81.5581 53H80.4927Z" fill="black"/>
<path d="M120.942 126.045V123.162H120.871C120.809 123.261 120.722 123.387 120.608 123.538C120.494 123.687 120.332 123.821 120.121 123.94C119.911 124.056 119.63 124.114 119.28 124.114C118.825 124.114 118.424 123.999 118.076 123.769C117.728 123.537 117.456 123.21 117.259 122.789C117.063 122.365 116.964 121.865 116.964 121.287C116.964 120.714 117.063 120.217 117.259 119.795C117.456 119.374 117.729 119.049 118.08 118.819C118.43 118.589 118.835 118.474 119.294 118.474C119.649 118.474 119.93 118.534 120.136 118.652C120.344 118.768 120.503 118.901 120.612 119.05C120.723 119.196 120.809 119.317 120.871 119.412H120.97V118.545H121.78V126.045H120.942ZM119.393 123.361C119.73 123.361 120.014 123.273 120.246 123.098C120.478 122.92 120.654 122.675 120.775 122.363C120.896 122.048 120.956 121.685 120.956 121.273C120.956 120.866 120.897 120.509 120.778 120.204C120.66 119.896 120.485 119.657 120.253 119.487C120.021 119.314 119.734 119.227 119.393 119.227C119.038 119.227 118.742 119.318 118.506 119.501C118.271 119.681 118.095 119.926 117.977 120.236C117.861 120.544 117.803 120.889 117.803 121.273C117.803 121.661 117.862 122.014 117.98 122.331C118.101 122.646 118.278 122.897 118.513 123.084C118.75 123.268 119.043 123.361 119.393 123.361Z" fill="black"/>
<path d="M33.123 186L31.461 180.545H32.3417L33.5207 184.722H33.5775L34.7423 180.545H35.6372L36.7877 184.707H36.8445L38.0235 180.545H38.9042L37.2423 186H36.4184L35.2252 181.81H35.14L33.9468 186H33.123ZM42.1135 186.114C41.588 186.114 41.1346 185.998 40.7535 185.766C40.3747 185.531 40.0823 185.205 39.8763 184.786C39.6727 184.364 39.5709 183.874 39.5709 183.315C39.5709 182.757 39.6727 182.264 39.8763 181.838C40.0823 181.41 40.3688 181.076 40.7357 180.837C41.105 180.595 41.5359 180.474 42.0283 180.474C42.3124 180.474 42.593 180.522 42.8699 180.616C43.1469 180.711 43.3991 180.865 43.6263 181.078C43.8536 181.289 44.0347 181.568 44.1697 181.916C44.3046 182.264 44.3721 182.693 44.3721 183.202V183.557H40.1675V182.832H43.5198C43.5198 182.525 43.4582 182.25 43.3351 182.009C43.2144 181.767 43.0416 181.576 42.8167 181.437C42.5941 181.297 42.3314 181.227 42.0283 181.227C41.6945 181.227 41.4057 181.31 41.1618 181.476C40.9204 181.639 40.7345 181.852 40.6043 182.115C40.4741 182.378 40.409 182.66 40.409 182.96V183.443C40.409 183.855 40.48 184.204 40.6221 184.491C40.7665 184.775 40.9665 184.991 41.2222 185.141C41.4779 185.287 41.775 185.361 42.1135 185.361C42.3337 185.361 42.5326 185.33 42.7101 185.268C42.8901 185.205 43.0451 185.11 43.1753 184.984C43.3055 184.857 43.4062 184.698 43.4772 184.509L44.2868 184.736C44.2016 185.01 44.0584 185.252 43.8572 185.46C43.6559 185.666 43.4073 185.827 43.1114 185.943C42.8155 186.057 42.4829 186.114 42.1135 186.114Z" fill="black"/>
<path d="M30.2701 62.1136C29.8155 62.1136 29.4142 61.9988 29.0662 61.7692C28.7182 61.5372 28.446 61.2105 28.2495 60.7891C28.053 60.3653 27.9547 59.8646 27.9547 59.2869C27.9547 58.714 28.053 58.2169 28.2495 57.7955C28.446 57.3741 28.7194 57.0485 29.0698 56.8189C29.4202 56.5893 29.825 56.4744 30.2843 56.4744C30.6394 56.4744 30.9199 56.5336 31.1259 56.652C31.3342 56.768 31.4928 56.9006 31.6017 57.0497C31.713 57.1965 31.7994 57.3172 31.861 57.4119H31.932V54.7273H32.7701V62H31.9604V61.1619H31.861C31.7994 61.2614 31.7118 61.3868 31.5982 61.5384C31.4846 61.6875 31.3224 61.8213 31.1117 61.9396C30.901 62.0556 30.6204 62.1136 30.2701 62.1136ZM30.3837 61.3608C30.7199 61.3608 31.004 61.2732 31.236 61.098C31.468 60.9205 31.6444 60.6754 31.7651 60.3629C31.8858 60.0481 31.9462 59.6847 31.9462 59.2727C31.9462 58.8655 31.887 58.5092 31.7686 58.2038C31.6503 57.8961 31.4751 57.657 31.2431 57.4865C31.0111 57.3137 30.7246 57.2273 30.3837 57.2273C30.0286 57.2273 29.7327 57.3184 29.4959 57.5007C29.2615 57.6806 29.0852 57.9257 28.9668 58.2358C28.8508 58.5436 28.7928 58.8892 28.7928 59.2727C28.7928 59.661 28.852 60.0137 28.9703 60.331C29.0911 60.6458 29.2686 60.8968 29.503 61.0838C29.7398 61.2685 30.0333 61.3608 30.3837 61.3608ZM36.0265 62.1278C35.6808 62.1278 35.3671 62.0627 35.0854 61.9325C34.8037 61.8 34.58 61.6094 34.4142 61.3608C34.2485 61.1098 34.1657 60.8068 34.1657 60.4517C34.1657 60.1392 34.2272 59.8859 34.3503 59.6918C34.4734 59.4953 34.638 59.3414 34.8439 59.2301C35.0499 59.1188 35.2772 59.036 35.5257 58.9815C35.7767 58.9247 36.0288 58.8797 36.2821 58.8466C36.6136 58.804 36.8823 58.772 37.0882 58.7507C37.2966 58.727 37.4481 58.688 37.5428 58.6335C37.6399 58.5791 37.6884 58.4844 37.6884 58.3494V58.321C37.6884 57.9706 37.5925 57.6984 37.4007 57.5043C37.2114 57.3101 36.9237 57.2131 36.5378 57.2131C36.1377 57.2131 35.824 57.3007 35.5968 57.4759C35.3695 57.651 35.2097 57.8381 35.1174 58.0369L34.3219 57.7528C34.464 57.4214 34.6533 57.1634 34.8901 56.9787C35.1292 56.7917 35.3896 56.6615 35.6713 56.5881C35.9554 56.5123 36.2348 56.4744 36.5094 56.4744C36.6846 56.4744 36.8858 56.4957 37.1131 56.5384C37.3427 56.5786 37.5641 56.6626 37.7772 56.7905C37.9926 56.9183 38.1713 57.1113 38.3134 57.3693C38.4554 57.6274 38.5265 57.973 38.5265 58.4062V62H37.6884V61.2614H37.6458C37.589 61.3797 37.4943 61.5064 37.3617 61.6413C37.2291 61.7763 37.0527 61.8911 36.8326 61.9858C36.6124 62.0805 36.3437 62.1278 36.0265 62.1278ZM36.1543 61.375C36.4857 61.375 36.7651 61.3099 36.9924 61.1797C37.222 61.0495 37.3948 60.8814 37.5108 60.6754C37.6292 60.4695 37.6884 60.2528 37.6884 60.0256V59.2585C37.6529 59.3011 37.5748 59.3402 37.454 59.3757C37.3356 59.4089 37.1983 59.4384 37.0421 59.4645C36.8882 59.4882 36.7379 59.5095 36.5911 59.5284C36.4467 59.545 36.3295 59.5592 36.2395 59.571C36.0217 59.5994 35.8181 59.6456 35.6287 59.7095C35.4417 59.7711 35.2902 59.8646 35.1742 59.9901C35.0605 60.1132 35.0037 60.2812 35.0037 60.4943C35.0037 60.7855 35.1114 61.0057 35.3269 61.1548C35.5447 61.3016 35.8205 61.375 36.1543 61.375ZM42.4283 56.5455V57.2557H39.6016V56.5455H42.4283ZM40.4254 55.2386H41.2635V60.4375C41.2635 60.6742 41.2978 60.8518 41.3665 60.9702C41.4375 61.0862 41.5275 61.1643 41.6364 61.2045C41.7476 61.2424 41.8648 61.2614 41.9879 61.2614C42.0803 61.2614 42.156 61.2566 42.2152 61.2472C42.2744 61.2353 42.3217 61.2259 42.3572 61.2188L42.5277 61.9716C42.4709 61.9929 42.3916 62.0142 42.2898 62.0355C42.188 62.0592 42.0589 62.071 41.9027 62.071C41.666 62.071 41.4339 62.0201 41.2067 61.9183C40.9818 61.8165 40.7947 61.6615 40.6456 61.4531C40.4988 61.2448 40.4254 60.982 40.4254 60.6648V55.2386ZM45.294 62.1278C44.9484 62.1278 44.6347 62.0627 44.353 61.9325C44.0713 61.8 43.8475 61.6094 43.6818 61.3608C43.5161 61.1098 43.4332 60.8068 43.4332 60.4517C43.4332 60.1392 43.4948 59.8859 43.6179 59.6918C43.741 59.4953 43.9055 59.3414 44.1115 59.2301C44.3175 59.1188 44.5447 59.036 44.7933 58.9815C45.0443 58.9247 45.2964 58.8797 45.5497 58.8466C45.8812 58.804 46.1499 58.772 46.3558 58.7507C46.5642 58.727 46.7157 58.688 46.8104 58.6335C46.9074 58.5791 46.956 58.4844 46.956 58.3494V58.321C46.956 57.9706 46.8601 57.6984 46.6683 57.5043C46.4789 57.3101 46.1913 57.2131 45.8054 57.2131C45.4053 57.2131 45.0916 57.3007 44.8643 57.4759C44.6371 57.651 44.4773 57.8381 44.3849 58.0369L43.5895 57.7528C43.7315 57.4214 43.9209 57.1634 44.1577 56.9787C44.3968 56.7917 44.6572 56.6615 44.9389 56.5881C45.223 56.5123 45.5024 56.4744 45.777 56.4744C45.9522 56.4744 46.1534 56.4957 46.3807 56.5384C46.6103 56.5786 46.8317 56.6626 47.0447 56.7905C47.2602 56.9183 47.4389 57.1113 47.581 57.3693C47.723 57.6274 47.794 57.973 47.794 58.4062V62H46.956V61.2614H46.9134C46.8565 61.3797 46.7618 61.5064 46.6293 61.6413C46.4967 61.7763 46.3203 61.8911 46.1001 61.9858C45.88 62.0805 45.6113 62.1278 45.294 62.1278ZM45.4219 61.375C45.7533 61.375 46.0327 61.3099 46.2599 61.1797C46.4896 61.0495 46.6624 60.8814 46.7784 60.6754C46.8968 60.4695 46.956 60.2528 46.956 60.0256V59.2585C46.9205 59.3011 46.8423 59.3402 46.7216 59.3757C46.6032 59.4089 46.4659 59.4384 46.3097 59.4645C46.1558 59.4882 46.0054 59.5095 45.8587 59.5284C45.7143 59.545 45.5971 59.5592 45.5071 59.571C45.2893 59.5994 45.0857 59.6456 44.8963 59.7095C44.7093 59.7711 44.5578 59.8646 44.4418 59.9901C44.3281 60.1132 44.2713 60.2812 44.2713 60.4943C44.2713 60.7855 44.379 61.0057 44.5945 61.1548C44.8123 61.3016 45.0881 61.375 45.4219 61.375Z" fill="black"/>
</svg>
