<svg width="150" height="220" viewBox="0 0 150 220" fill="none" xmlns="http://www.w3.org/2000/svg">
<rect x="21.5" y="21.5" width="107" height="197" fill="white" stroke="black" stroke-width="3"/>
<path d="M64.6077 22L75 40L85.3923 22H64.6077Z" fill="white" stroke="black" stroke-width="3"/>
<line x1="75.5" y1="20" x2="75.5" stroke="black" stroke-width="3"/>
<line x1="20" y1="59.5" y2="59.5" stroke="black" stroke-width="3"/>
<line x1="20" y1="121.5" y2="121.5" stroke="black" stroke-width="3"/>
<line x1="20" y1="183.5" y2="183.5" stroke="black" stroke-width="3"/>
<line x1="130" y1="120.5" x2="150" y2="120.5" stroke="black" stroke-width="3"/>
<path d="M41.2543 109.909C41.1052 108.65 40.5003 107.672 39.4397 106.976C38.3791 106.28 37.0782 105.932 35.537 105.932C34.4101 105.932 33.4241 106.114 32.5789 106.479C31.742 106.843 31.0874 107.345 30.6151 107.983C30.1511 108.621 29.9191 109.346 29.9191 110.158C29.9191 110.837 30.0807 111.421 30.4038 111.91C30.7352 112.391 31.1578 112.793 31.6716 113.116C32.1853 113.431 32.7239 113.692 33.2873 113.899C33.8508 114.098 34.3687 114.259 34.841 114.384L37.4262 115.08C38.0891 115.254 38.8265 115.494 39.6385 115.8C40.4589 116.107 41.2419 116.525 41.9876 117.056C42.7416 117.578 43.3631 118.249 43.852 119.069C44.3408 119.89 44.5853 120.896 44.5853 122.089C44.5853 123.465 44.2248 124.708 43.504 125.818C42.7914 126.929 41.7473 127.811 40.3718 128.466C39.0047 129.12 37.3433 129.447 35.3878 129.447C33.5649 129.447 31.9864 129.153 30.6524 128.565C29.3266 127.977 28.2826 127.156 27.5203 126.104C26.7663 125.052 26.3395 123.83 26.2401 122.438H29.4219C29.5048 123.399 29.8279 124.194 30.3914 124.824C30.9631 125.445 31.684 125.909 32.554 126.216C33.4323 126.514 34.3769 126.663 35.3878 126.663C36.5644 126.663 37.6209 126.473 38.5572 126.092C39.4935 125.702 40.2351 125.164 40.782 124.476C41.3289 123.78 41.6023 122.968 41.6023 122.04C41.6023 121.195 41.3662 120.507 40.8939 119.977C40.4216 119.446 39.8001 119.015 39.0295 118.684C38.2589 118.353 37.4262 118.062 36.5313 117.814L33.3992 116.919C31.4106 116.347 29.8362 115.531 28.6762 114.471C27.5161 113.41 26.9361 112.022 26.9361 110.307C26.9361 108.882 27.3214 107.639 28.092 106.578C28.8709 105.509 29.9149 104.681 31.2241 104.092C32.5416 103.496 34.0124 103.197 35.6364 103.197C37.277 103.197 38.7354 103.492 40.0114 104.08C41.2875 104.66 42.2983 105.455 43.0441 106.466C43.7981 107.477 44.1958 108.625 44.2373 109.909H41.2543ZM49.6532 129V103.545H58.254C60.2427 103.545 61.875 103.885 63.1511 104.565C64.4271 105.236 65.3717 106.16 65.9849 107.336C66.598 108.513 66.9046 109.851 66.9046 111.351C66.9046 112.851 66.598 114.181 65.9849 115.341C65.3717 116.501 64.4312 117.412 63.1635 118.075C61.8957 118.73 60.2758 119.057 58.3038 119.057H51.3435V116.273H58.2043C59.5632 116.273 60.657 116.074 61.4856 115.676C62.3225 115.278 62.9273 114.715 63.3002 113.986C63.6814 113.248 63.8719 112.37 63.8719 111.351C63.8719 110.332 63.6814 109.441 63.3002 108.679C62.919 107.916 62.31 107.328 61.4731 106.914C60.6363 106.491 59.5301 106.28 58.1546 106.28H52.7356V129H49.6532ZM61.6347 117.565L67.8989 129H64.3194L58.1546 117.565H61.6347ZM73.0849 129H69.8534L79.2 103.545H82.3818L91.7284 129H88.4968L80.8903 107.572H80.6915L73.0849 129ZM74.2781 119.057H87.3037V121.791H74.2781V119.057ZM95.6932 103.545H99.3722L108.023 124.675H108.321L116.972 103.545H120.651V129H117.767V109.661H117.519L109.564 129H106.78L98.8253 109.661H98.5767V129H95.6932V103.545Z" fill="black"/>
</svg>
