<svg width="150" height="220" viewBox="0 0 150 220" fill="none" xmlns="http://www.w3.org/2000/svg">
<line x1="20" y1="59.5" y2="59.5" stroke="black" stroke-width="3"/>
<line x1="20" y1="121.5" y2="121.5" stroke="black" stroke-width="3"/>
<line x1="20" y1="183.5" y2="183.5" stroke="black" stroke-width="3"/>
<rect x="21.5" y="21.5" width="107" height="197" fill="white" stroke="black" stroke-width="3"/>
<path d="M43.4242 129V103.545H52.025C54.0137 103.545 55.646 103.885 56.9221 104.565C58.1981 105.236 59.1427 106.16 59.7559 107.336C60.369 108.513 60.6756 109.851 60.6756 111.351C60.6756 112.851 60.369 114.181 59.7559 115.341C59.1427 116.501 58.2022 117.412 56.9345 118.075C55.6667 118.73 54.0468 119.057 52.0748 119.057H45.1145V116.273H51.9753C53.3342 116.273 54.428 116.074 55.2566 115.676C56.0935 115.278 56.6983 114.715 57.0712 113.986C57.4524 113.248 57.6429 112.37 57.6429 111.351C57.6429 110.332 57.4524 109.441 57.0712 108.679C56.69 107.916 56.081 107.328 55.2441 106.914C54.4073 106.491 53.3011 106.28 51.9256 106.28H46.5066V129H43.4242ZM55.4057 117.565L61.6699 129H58.0904L51.9256 117.565H55.4057ZM65.8119 129V103.545H81.1741V106.28H68.8943V114.881H80.3786V117.615H68.8943V126.266H81.373V129H65.8119ZM104.13 111.5C103.857 110.663 103.497 109.913 103.049 109.25C102.61 108.579 102.084 108.007 101.471 107.535C100.866 107.063 100.178 106.702 99.4074 106.454C98.6368 106.205 97.7916 106.081 96.8719 106.081C95.3638 106.081 93.9925 106.47 92.7579 107.249C91.5233 108.028 90.5414 109.176 89.8122 110.692C89.0831 112.208 88.7185 114.069 88.7185 116.273C88.7185 118.477 89.0872 120.337 89.8247 121.853C90.5621 123.37 91.5606 124.517 92.82 125.296C94.0795 126.075 95.4964 126.464 97.0708 126.464C98.5291 126.464 99.8134 126.154 100.924 125.532C102.042 124.903 102.912 124.016 103.534 122.873C104.164 121.721 104.478 120.366 104.478 118.808L105.423 119.007H97.7668V116.273H107.461V119.007C107.461 121.103 107.014 122.926 106.119 124.476C105.232 126.025 104.006 127.227 102.44 128.08C100.882 128.925 99.0925 129.348 97.0708 129.348C94.817 129.348 92.8366 128.818 91.1297 127.757C89.4311 126.696 88.1053 125.188 87.1524 123.233C86.2078 121.277 85.7355 118.957 85.7355 116.273C85.7355 114.259 86.0048 112.449 86.5434 110.841C87.0903 109.225 87.8609 107.85 88.8552 106.715C89.8495 105.58 91.0261 104.71 92.385 104.105C93.7439 103.5 95.2396 103.197 96.8719 103.197C98.2142 103.197 99.4654 103.4 100.625 103.806C101.794 104.204 102.834 104.772 103.745 105.509C104.665 106.238 105.431 107.113 106.044 108.132C106.658 109.143 107.08 110.265 107.312 111.5H104.13Z" fill="black"/>
<path d="M23 193.392L41 183L23 172.608L23 193.392Z" fill="white" stroke="black" stroke-width="3"/>
<line x1="75.5" y1="20" x2="75.5" stroke="black" stroke-width="3"/>
<line x1="130" y1="120.5" x2="150" y2="120.5" stroke="black" stroke-width="3"/>
</svg>
