<svg width="150" height="220" viewBox="0 0 150 220" fill="none" xmlns="http://www.w3.org/2000/svg">
<rect x="21.5" y="21.5" width="107" height="197" fill="white" stroke="black" stroke-width="3"/>
<path d="M64.6077 22L75 40L85.3923 22H64.6077Z" fill="white" stroke="black" stroke-width="3"/>
<line x1="75.5" y1="20" x2="75.5" stroke="black" stroke-width="3"/>
<line x1="20" y1="59.5" y2="59.5" stroke="black" stroke-width="3"/>
<line x1="20" y1="121.5" y2="121.5" stroke="black" stroke-width="3"/>
<line x1="20" y1="183.5" y2="183.5" stroke="black" stroke-width="3"/>
<line x1="130" y1="120.5" x2="150" y2="120.5" stroke="black" stroke-width="3"/>
<path d="M35.219 124.114C34.6934 124.114 34.2401 123.998 33.8589 123.766C33.4801 123.531 33.1878 123.205 32.9818 122.786C32.7782 122.364 32.6764 121.874 32.6764 121.315C32.6764 120.757 32.7782 120.264 32.9818 119.838C33.1878 119.41 33.4742 119.076 33.8412 118.837C34.2105 118.595 34.6414 118.474 35.1338 118.474C35.4179 118.474 35.6984 118.522 35.9754 118.616C36.2524 118.711 36.5045 118.865 36.7318 119.078C36.9591 119.289 37.1402 119.568 37.2751 119.916C37.4101 120.264 37.4775 120.693 37.4775 121.202V121.557H33.273V120.832H36.6253C36.6253 120.525 36.5637 120.25 36.4406 120.009C36.3199 119.767 36.147 119.576 35.9221 119.437C35.6996 119.297 35.4368 119.227 35.1338 119.227C34.8 119.227 34.5112 119.31 34.2673 119.476C34.0258 119.639 33.84 119.852 33.7098 120.115C33.5796 120.378 33.5145 120.66 33.5145 120.96V121.443C33.5145 121.855 33.5855 122.204 33.7275 122.491C33.872 122.775 34.072 122.991 34.3277 123.141C34.5834 123.287 34.8805 123.361 35.219 123.361C35.4392 123.361 35.6381 123.33 35.8156 123.268C35.9955 123.205 36.1506 123.11 36.2808 122.984C36.411 122.857 36.5116 122.698 36.5827 122.509L37.3923 122.736C37.3071 123.01 37.1639 123.252 36.9626 123.46C36.7614 123.666 36.5128 123.827 36.2169 123.943C35.921 124.057 35.5883 124.114 35.219 124.114ZM39.5905 120.719V124H38.7524V118.545H39.5621V119.398H39.6331C39.7609 119.121 39.955 118.898 40.2155 118.73C40.4759 118.56 40.8121 118.474 41.224 118.474C41.5933 118.474 41.9165 118.55 42.1934 118.702C42.4704 118.851 42.6859 119.078 42.8398 119.384C42.9936 119.687 43.0706 120.07 43.0706 120.534V124H42.2325V120.591C42.2325 120.162 42.1212 119.829 41.8987 119.589C41.6762 119.348 41.3708 119.227 40.9825 119.227C40.715 119.227 40.4759 119.285 40.2652 119.401C40.0568 119.517 39.8923 119.687 39.7716 119.909C39.6508 120.132 39.5905 120.402 39.5905 120.719Z" fill="black"/>
<path d="M71.2837 53.1136C70.7724 53.1136 70.332 52.9929 69.9627 52.7514C69.5934 52.5099 69.3093 52.1773 69.1104 51.7536C68.9116 51.3298 68.8121 50.8456 68.8121 50.3011C68.8121 49.7472 68.9139 49.2583 69.1175 48.8345C69.3235 48.4084 69.61 48.0758 69.9769 47.8366C70.3462 47.5952 70.7771 47.4744 71.2695 47.4744C71.6531 47.4744 71.9987 47.5455 72.3065 47.6875C72.6142 47.8295 72.8664 48.0284 73.0629 48.2841C73.2594 48.5398 73.3813 48.8381 73.4286 49.179H72.5906C72.5266 48.9304 72.3846 48.7102 72.1644 48.5185C71.9466 48.3243 71.6531 48.2273 71.2837 48.2273C70.957 48.2273 70.6706 48.3125 70.4244 48.483C70.1805 48.651 69.9899 48.889 69.8526 49.1967C69.7177 49.5021 69.6502 49.8608 69.6502 50.2727C69.6502 50.6941 69.7165 51.0611 69.8491 51.3736C69.984 51.6861 70.1734 51.9287 70.4173 52.1016C70.6635 52.2744 70.9523 52.3608 71.2837 52.3608C71.5015 52.3608 71.6992 52.3229 71.8768 52.2472C72.0543 52.1714 72.2047 52.0625 72.3278 51.9205C72.4509 51.7784 72.5385 51.608 72.5906 51.4091H73.4286C73.3813 51.7311 73.2641 52.0211 73.0771 52.2791C72.8924 52.5348 72.6474 52.7384 72.342 52.8899C72.0389 53.0391 71.6862 53.1136 71.2837 53.1136ZM75.4918 45.7273V53H74.6538V45.7273H75.4918ZM77.8081 51.0114L77.7939 49.9744H77.9643L80.3507 47.5455H81.3876L78.845 50.1165H78.774L77.8081 51.0114ZM77.0268 53V45.7273H77.8649V53H77.0268ZM80.4927 53L78.362 50.3011L78.9586 49.7188L81.5581 53H80.4927Z" fill="black"/>
<path d="M120.942 126.045V123.162H120.871C120.809 123.261 120.722 123.387 120.608 123.538C120.494 123.687 120.332 123.821 120.121 123.94C119.911 124.056 119.63 124.114 119.28 124.114C118.825 124.114 118.424 123.999 118.076 123.769C117.728 123.537 117.456 123.21 117.259 122.789C117.063 122.365 116.964 121.865 116.964 121.287C116.964 120.714 117.063 120.217 117.259 119.795C117.456 119.374 117.729 119.049 118.08 118.819C118.43 118.589 118.835 118.474 119.294 118.474C119.649 118.474 119.93 118.534 120.136 118.652C120.344 118.768 120.503 118.901 120.612 119.05C120.723 119.196 120.809 119.317 120.871 119.412H120.97V118.545H121.78V126.045H120.942ZM119.393 123.361C119.73 123.361 120.014 123.273 120.246 123.098C120.478 122.92 120.654 122.675 120.775 122.363C120.896 122.048 120.956 121.685 120.956 121.273C120.956 120.866 120.897 120.509 120.778 120.204C120.66 119.896 120.485 119.657 120.253 119.487C120.021 119.314 119.734 119.227 119.393 119.227C119.038 119.227 118.742 119.318 118.506 119.501C118.271 119.681 118.095 119.926 117.977 120.236C117.861 120.544 117.803 120.889 117.803 121.273C117.803 121.661 117.862 122.014 117.98 122.331C118.101 122.646 118.278 122.897 118.513 123.084C118.75 123.268 119.043 123.361 119.393 123.361Z" fill="black"/>
<path d="M32.978 186V180.545H33.7876V181.369H33.8445C33.9439 181.099 34.1238 180.88 34.3842 180.712C34.6446 180.544 34.9382 180.46 35.2649 180.46C35.3265 180.46 35.4034 180.461 35.4957 180.464C35.5881 180.466 35.6579 180.47 35.7053 180.474V181.327C35.6768 181.32 35.6117 181.309 35.5099 181.295C35.4105 181.278 35.3052 181.27 35.1939 181.27C34.9287 181.27 34.692 181.326 34.4837 181.437C34.2777 181.546 34.1143 181.697 33.9936 181.891C33.8752 182.083 33.8161 182.302 33.8161 182.548V186H32.978ZM40.5623 181.767L39.8095 181.98C39.7621 181.855 39.6923 181.733 39.6 181.614C39.51 181.494 39.3869 181.394 39.2306 181.316C39.0744 181.238 38.8743 181.199 38.6305 181.199C38.2967 181.199 38.0185 181.276 37.796 181.43C37.5758 181.581 37.4657 181.774 37.4657 182.009C37.4657 182.217 37.5415 182.381 37.693 182.502C37.8445 182.623 38.0813 182.723 38.4032 182.804L39.2129 183.003C39.7006 183.121 40.064 183.302 40.3031 183.546C40.5422 183.788 40.6618 184.099 40.6618 184.48C40.6618 184.793 40.5718 185.072 40.3919 185.318C40.2143 185.564 39.9657 185.759 39.6461 185.901C39.3265 186.043 38.9548 186.114 38.5311 186.114C37.9747 186.114 37.5143 185.993 37.1497 185.751C36.7851 185.51 36.5543 185.157 36.4572 184.693L37.2527 184.494C37.3284 184.788 37.4717 185.008 37.6824 185.155C37.8954 185.302 38.1736 185.375 38.5169 185.375C38.9075 185.375 39.2176 185.292 39.4473 185.126C39.6793 184.958 39.7953 184.757 39.7953 184.523C39.7953 184.333 39.729 184.175 39.5964 184.047C39.4638 183.917 39.2602 183.82 38.9856 183.756L38.0765 183.543C37.577 183.424 37.21 183.241 36.9757 182.992C36.7437 182.741 36.6277 182.428 36.6277 182.051C36.6277 181.743 36.7141 181.471 36.8869 181.234C37.0621 180.998 37.3 180.812 37.6007 180.677C37.9037 180.542 38.247 180.474 38.6305 180.474C39.1703 180.474 39.594 180.593 39.9018 180.83C40.2119 181.066 40.4321 181.379 40.5623 181.767ZM44.2955 180.545V181.256H41.4688V180.545H44.2955ZM42.2926 179.239H43.1307V184.438C43.1307 184.674 43.165 184.852 43.2337 184.97C43.3047 185.086 43.3946 185.164 43.5036 185.205C43.6148 185.242 43.732 185.261 43.8551 185.261C43.9474 185.261 44.0232 185.257 44.0824 185.247C44.1416 185.235 44.1889 185.226 44.2244 185.219L44.3949 185.972C44.3381 185.993 44.2588 186.014 44.157 186.036C44.0552 186.059 43.9261 186.071 43.7699 186.071C43.5331 186.071 43.3011 186.02 43.0739 185.918C42.849 185.817 42.6619 185.661 42.5128 185.453C42.366 185.245 42.2926 184.982 42.2926 184.665V179.239Z" fill="black"/>
<path d="M30.2701 62.1136C29.8155 62.1136 29.4142 61.9988 29.0662 61.7692C28.7182 61.5372 28.446 61.2105 28.2495 60.7891C28.053 60.3653 27.9547 59.8646 27.9547 59.2869C27.9547 58.714 28.053 58.2169 28.2495 57.7955C28.446 57.3741 28.7194 57.0485 29.0698 56.8189C29.4202 56.5893 29.825 56.4744 30.2843 56.4744C30.6394 56.4744 30.9199 56.5336 31.1259 56.652C31.3342 56.768 31.4928 56.9006 31.6017 57.0497C31.713 57.1965 31.7994 57.3172 31.861 57.4119H31.932V54.7273H32.7701V62H31.9604V61.1619H31.861C31.7994 61.2614 31.7118 61.3868 31.5982 61.5384C31.4846 61.6875 31.3224 61.8213 31.1117 61.9396C30.901 62.0556 30.6204 62.1136 30.2701 62.1136ZM30.3837 61.3608C30.7199 61.3608 31.004 61.2732 31.236 61.098C31.468 60.9205 31.6444 60.6754 31.7651 60.3629C31.8858 60.0481 31.9462 59.6847 31.9462 59.2727C31.9462 58.8655 31.887 58.5092 31.7686 58.2038C31.6503 57.8961 31.4751 57.657 31.2431 57.4865C31.0111 57.3137 30.7246 57.2273 30.3837 57.2273C30.0286 57.2273 29.7327 57.3184 29.4959 57.5007C29.2615 57.6806 29.0852 57.9257 28.9668 58.2358C28.8508 58.5436 28.7928 58.8892 28.7928 59.2727C28.7928 59.661 28.852 60.0137 28.9703 60.331C29.0911 60.6458 29.2686 60.8968 29.503 61.0838C29.7398 61.2685 30.0333 61.3608 30.3837 61.3608ZM36.0265 62.1278C35.6808 62.1278 35.3671 62.0627 35.0854 61.9325C34.8037 61.8 34.58 61.6094 34.4142 61.3608C34.2485 61.1098 34.1657 60.8068 34.1657 60.4517C34.1657 60.1392 34.2272 59.8859 34.3503 59.6918C34.4734 59.4953 34.638 59.3414 34.8439 59.2301C35.0499 59.1188 35.2772 59.036 35.5257 58.9815C35.7767 58.9247 36.0288 58.8797 36.2821 58.8466C36.6136 58.804 36.8823 58.772 37.0882 58.7507C37.2966 58.727 37.4481 58.688 37.5428 58.6335C37.6399 58.5791 37.6884 58.4844 37.6884 58.3494V58.321C37.6884 57.9706 37.5925 57.6984 37.4007 57.5043C37.2114 57.3101 36.9237 57.2131 36.5378 57.2131C36.1377 57.2131 35.824 57.3007 35.5968 57.4759C35.3695 57.651 35.2097 57.8381 35.1174 58.0369L34.3219 57.7528C34.464 57.4214 34.6533 57.1634 34.8901 56.9787C35.1292 56.7917 35.3896 56.6615 35.6713 56.5881C35.9554 56.5123 36.2348 56.4744 36.5094 56.4744C36.6846 56.4744 36.8858 56.4957 37.1131 56.5384C37.3427 56.5786 37.5641 56.6626 37.7772 56.7905C37.9926 56.9183 38.1713 57.1113 38.3134 57.3693C38.4554 57.6274 38.5265 57.973 38.5265 58.4062V62H37.6884V61.2614H37.6458C37.589 61.3797 37.4943 61.5064 37.3617 61.6413C37.2291 61.7763 37.0527 61.8911 36.8326 61.9858C36.6124 62.0805 36.3437 62.1278 36.0265 62.1278ZM36.1543 61.375C36.4857 61.375 36.7651 61.3099 36.9924 61.1797C37.222 61.0495 37.3948 60.8814 37.5108 60.6754C37.6292 60.4695 37.6884 60.2528 37.6884 60.0256V59.2585C37.6529 59.3011 37.5748 59.3402 37.454 59.3757C37.3356 59.4089 37.1983 59.4384 37.0421 59.4645C36.8882 59.4882 36.7379 59.5095 36.5911 59.5284C36.4467 59.545 36.3295 59.5592 36.2395 59.571C36.0217 59.5994 35.8181 59.6456 35.6287 59.7095C35.4417 59.7711 35.2902 59.8646 35.1742 59.9901C35.0605 60.1132 35.0037 60.2812 35.0037 60.4943C35.0037 60.7855 35.1114 61.0057 35.3269 61.1548C35.5447 61.3016 35.8205 61.375 36.1543 61.375ZM42.4283 56.5455V57.2557H39.6016V56.5455H42.4283ZM40.4254 55.2386H41.2635V60.4375C41.2635 60.6742 41.2978 60.8518 41.3665 60.9702C41.4375 61.0862 41.5275 61.1643 41.6364 61.2045C41.7476 61.2424 41.8648 61.2614 41.9879 61.2614C42.0803 61.2614 42.156 61.2566 42.2152 61.2472C42.2744 61.2353 42.3217 61.2259 42.3572 61.2188L42.5277 61.9716C42.4709 61.9929 42.3916 62.0142 42.2898 62.0355C42.188 62.0592 42.0589 62.071 41.9027 62.071C41.666 62.071 41.4339 62.0201 41.2067 61.9183C40.9818 61.8165 40.7947 61.6615 40.6456 61.4531C40.4988 61.2448 40.4254 60.982 40.4254 60.6648V55.2386ZM45.294 62.1278C44.9484 62.1278 44.6347 62.0627 44.353 61.9325C44.0713 61.8 43.8475 61.6094 43.6818 61.3608C43.5161 61.1098 43.4332 60.8068 43.4332 60.4517C43.4332 60.1392 43.4948 59.8859 43.6179 59.6918C43.741 59.4953 43.9055 59.3414 44.1115 59.2301C44.3175 59.1188 44.5447 59.036 44.7933 58.9815C45.0443 58.9247 45.2964 58.8797 45.5497 58.8466C45.8812 58.804 46.1499 58.772 46.3558 58.7507C46.5642 58.727 46.7157 58.688 46.8104 58.6335C46.9074 58.5791 46.956 58.4844 46.956 58.3494V58.321C46.956 57.9706 46.8601 57.6984 46.6683 57.5043C46.4789 57.3101 46.1913 57.2131 45.8054 57.2131C45.4053 57.2131 45.0916 57.3007 44.8643 57.4759C44.6371 57.651 44.4773 57.8381 44.3849 58.0369L43.5895 57.7528C43.7315 57.4214 43.9209 57.1634 44.1577 56.9787C44.3968 56.7917 44.6572 56.6615 44.9389 56.5881C45.223 56.5123 45.5024 56.4744 45.777 56.4744C45.9522 56.4744 46.1534 56.4957 46.3807 56.5384C46.6103 56.5786 46.8317 56.6626 47.0447 56.7905C47.2602 56.9183 47.4389 57.1113 47.581 57.3693C47.723 57.6274 47.794 57.973 47.794 58.4062V62H46.956V61.2614H46.9134C46.8565 61.3797 46.7618 61.5064 46.6293 61.6413C46.4967 61.7763 46.3203 61.8911 46.1001 61.9858C45.88 62.0805 45.6113 62.1278 45.294 62.1278ZM45.4219 61.375C45.7533 61.375 46.0327 61.3099 46.2599 61.1797C46.4896 61.0495 46.6624 60.8814 46.7784 60.6754C46.8968 60.4695 46.956 60.2528 46.956 60.0256V59.2585C46.9205 59.3011 46.8423 59.3402 46.7216 59.3757C46.6032 59.4089 46.4659 59.4384 46.3097 59.4645C46.1558 59.4882 46.0054 59.5095 45.8587 59.5284C45.7143 59.545 45.5971 59.5592 45.5071 59.571C45.2893 59.5994 45.0857 59.6456 44.8963 59.7095C44.7093 59.7711 44.5578 59.8646 44.4418 59.9901C44.3281 60.1132 44.2713 60.2812 44.2713 60.4943C44.2713 60.7855 44.379 61.0057 44.5945 61.1548C44.8123 61.3016 45.0881 61.375 45.4219 61.375Z" fill="black"/>
</svg>
