<svg width="153" height="223" viewBox="0 0 153 223" fill="none" xmlns="http://www.w3.org/2000/svg">
    <path d="M132 220L132 3L21 57.25L21 165.75L132 220Z" fill="white" stroke="black" stroke-width="3"/>
    <line x1="20" y1="112.5" y2="112.5" stroke="black" stroke-width="3"/>
    <line x1="153" y1="45.5" x2="133" y2="45.5" stroke="black" stroke-width="3"/>
    <line x1="153" y1="90.5" x2="133" y2="90.5" stroke="black" stroke-width="3"/>
    <line x1="153" y1="135.5" x2="133" y2="135.5" stroke="black" stroke-width="3"/>
    <line x1="153" y1="180.5" x2="133" y2="180.5" stroke="black" stroke-width="3"/>
    <path d="M45.0316 104.909C44.8825 103.65 44.2776 102.672 43.217 101.976C42.1564 101.28 40.8555 100.932 39.3143 100.932C38.1874 100.932 37.2014 101.114 36.3562 101.479C35.5193 101.843 34.8647 102.345 34.3924 102.983C33.9284 103.621 33.6964 104.346 33.6964 105.158C33.6964 105.837 33.858 106.421 34.1812 106.91C34.5126 107.391 34.9352 107.793 35.4489 108.116C35.9626 108.431 36.5012 108.692 37.0647 108.899C37.6281 109.098 38.146 109.259 38.6183 109.384L41.2035 110.08C41.8664 110.254 42.6039 110.494 43.4159 110.8C44.2362 111.107 45.0192 111.525 45.765 112.056C46.519 112.578 47.1404 113.249 47.6293 114.069C48.1182 114.89 48.3626 115.896 48.3626 117.089C48.3626 118.465 48.0022 119.708 47.2813 120.818C46.5687 121.929 45.5247 122.811 44.1492 123.466C42.782 124.12 41.1207 124.447 39.1652 124.447C37.3423 124.447 35.7638 124.153 34.4297 123.565C33.104 122.977 32.0599 122.156 31.2976 121.104C30.5436 120.052 30.1169 118.83 30.0174 117.438H33.1993C33.2821 118.399 33.6053 119.194 34.1687 119.824C34.7405 120.445 35.4613 120.909 36.3314 121.216C37.2097 121.514 38.1543 121.663 39.1652 121.663C40.3418 121.663 41.3982 121.473 42.3346 121.092C43.2709 120.702 44.0125 120.164 44.5593 119.476C45.1062 118.78 45.3797 117.968 45.3797 117.04C45.3797 116.195 45.1435 115.507 44.6712 114.977C44.1989 114.446 43.5775 114.015 42.8069 113.684C42.0363 113.353 41.2035 113.062 40.3086 112.814L37.1765 111.919C35.1879 111.347 33.6136 110.531 32.4535 109.471C31.2935 108.41 30.7135 107.022 30.7135 105.307C30.7135 103.882 31.0988 102.639 31.8694 101.578C32.6482 100.509 33.6923 99.6806 35.0015 99.0923C36.3189 98.4957 37.7897 98.1974 39.4138 98.1974C41.0544 98.1974 42.5127 98.4916 43.7888 99.0799C45.0648 99.6599 46.0757 100.455 46.8214 101.466C47.5754 102.477 47.9732 103.625 48.0146 104.909H45.0316ZM53.4305 124V98.5455H62.0314C64.0283 98.5455 65.6606 98.9059 66.9284 99.6268C68.2044 100.339 69.149 101.305 69.7622 102.523C70.3754 103.741 70.682 105.1 70.682 106.599C70.682 108.099 70.3754 109.462 69.7622 110.689C69.1573 111.915 68.221 112.893 66.9533 113.622C65.6855 114.343 64.0614 114.703 62.0811 114.703H55.9163V111.969H61.9817C63.3489 111.969 64.4467 111.733 65.2753 111.26C66.1039 110.788 66.7047 110.15 67.0775 109.346C67.4587 108.534 67.6493 107.619 67.6493 106.599C67.6493 105.58 67.4587 104.669 67.0775 103.865C66.7047 103.061 66.0998 102.432 65.2629 101.976C64.426 101.512 63.3157 101.28 61.932 101.28H56.5129V124H53.4305ZM75.6473 124V98.5455H78.7297V121.266H90.5621V124H75.6473ZM98.4172 98.5455V124H95.3348V98.5455H98.4172ZM103.205 101.28V98.5455H122.296V101.28H114.292V124H111.21V101.28H103.205Z" fill="black"/>
</svg>
