<?xml version="1.0" standalone="no"?>
<!DOCTYPE svg PUBLIC "-//W3C//DTD SVG 20010904//EN"
 "http://www.w3.org/TR/2001/REC-SVG-20010904/DTD/svg10.dtd">
<svg version="1.0" xmlns="http://www.w3.org/2000/svg"
 width="560.000000pt" height="303.000000pt" viewBox="0 0 560.000000 303.000000"
 preserveAspectRatio="xMidYMid meet">

<g transform="translate(0.000000,303.000000) scale(0.100000,-0.100000)"
fill="#000000" stroke="none">
<path d="M720 2977 c-19 -17 -59 -53 -89 -78 l-53 -47 68 -96 c38 -52 94 -139
126 -193 l56 -98 -376 -5 c-208 -3 -385 -9 -395 -14 -20 -9 -47 -56 -47 -81 0
-36 30 -74 68 -84 23 -7 191 -11 439 -11 l401 0 32 -82 c92 -241 134 -468 135
-728 0 -243 -28 -396 -111 -613 l-37 -97 -419 0 c-462 0 -474 -1 -497 -59 -16
-36 -8 -74 19 -101 19 -19 35 -20 405 -20 212 0 385 -4 385 -8 0 -29 -161
-241 -244 -322 -25 -24 -46 -48 -46 -53 0 -13 139 -177 149 -177 12 0 170 167
222 235 127 166 257 407 319 595 189 568 100 1238 -245 1835 -56 98 -161 253
-207 307 l-23 28 -35 -33z"/>
<path d="M976 2923 c183 -244 351 -576 437 -863 159 -525 121 -999 -117 -1485
-100 -203 -221 -386 -340 -512 l-49 -53 617 0 c745 0 835 8 1102 95 502 164
1011 580 1391 1136 l79 117 34 -67 c64 -125 191 -221 328 -250 213 -44 427 61
526 259 20 40 36 83 36 96 l0 24 256 0 256 0 29 29 c36 37 38 79 5 118 l-24
28 -257 5 -256 5 -17 50 c-56 164 -195 290 -360 324 -240 50 -473 -88 -556
-327 l-12 -34 -64 88 c-451 629 -974 1059 -1485 1224 -231 74 -216 73 -957 77
l-668 4 66 -88z m1339 -181 c419 -96 836 -375 1226 -820 105 -119 257 -314
314 -400 34 -52 36 -48 -80 -207 -389 -533 -854 -888 -1323 -1011 -174 -45
-277 -54 -679 -54 -205 0 -373 1 -373 3 0 2 25 48 55 102 397 719 390 1497
-21 2283 -35 67 -64 125 -64 128 0 3 192 4 428 1 387 -3 435 -6 517 -25z
m2387 -905 c75 -35 129 -86 169 -159 33 -60 34 -67 34 -168 0 -101 -1 -108
-34 -168 -40 -74 -93 -124 -171 -161 -47 -22 -69 -26 -145 -26 -76 0 -98 4
-145 26 -148 71 -231 222 -210 381 19 139 131 263 267 298 63 16 176 5 235
-23z"/>
</g>
</svg>
