<?xml version="1.0" standalone="no"?>
<!DOCTYPE svg PUBLIC "-//W3C//DTD SVG 20010904//EN"
 "http://www.w3.org/TR/2001/REC-SVG-20010904/DTD/svg10.dtd">
<svg version="1.0" xmlns="http://www.w3.org/2000/svg"
 width="560.000000pt" height="305.000000pt" viewBox="0 0 560.000000 305.000000"
 preserveAspectRatio="xMidYMid meet">

<g transform="translate(0.000000,305.000000) scale(0.100000,-0.100000)"
fill="#000000" stroke="none">
<path d="M1260 2997 c-19 -17 -59 -53 -89 -78 l-53 -47 68 -96 c38 -52 94
-139 126 -193 l56 -98 -646 -5 c-356 -3 -655 -9 -665 -14 -20 -9 -47 -56 -47
-81 0 -36 30 -74 68 -84 24 -7 274 -11 709 -11 l671 0 32 -82 c92 -240 134
-467 135 -728 0 -242 -27 -396 -111 -613 l-37 -97 -689 0 c-562 0 -695 -3
-722 -14 -58 -24 -72 -100 -26 -146 20 -20 36 -20 675 -20 360 0 655 -4 655
-8 0 -29 -161 -241 -244 -322 -25 -24 -46 -48 -46 -53 0 -13 139 -177 149
-177 12 0 170 167 222 235 127 166 257 407 319 595 189 568 100 1238 -245
1835 -56 98 -161 253 -207 307 l-23 28 -35 -33z"/>
<path d="M1510 2951 c186 -246 367 -606 449 -891 123 -427 120 -799 -10 -1195
-88 -266 -280 -598 -453 -782 l-49 -53 617 0 c370 0 656 4 714 11 318 35 629
153 924 351 304 204 635 541 859 877 l74 110 448 1 449 0 29 29 c39 40 39 82
0 122 l-29 29 -429 0 -429 0 -82 120 c-155 225 -360 468 -546 647 -383 370
-752 584 -1161 674 -97 22 -122 23 -767 26 l-668 4 60 -80z m1345 -189 c272
-62 532 -196 805 -412 208 -165 500 -480 692 -746 54 -75 56 -81 49 -121 -14
-77 -238 -362 -445 -568 -343 -341 -697 -542 -1092 -621 -62 -13 -170 -17
-501 -21 -233 -3 -423 -3 -423 -1 0 2 25 49 55 103 311 563 375 1159 190 1769
-51 169 -96 279 -188 466 -45 91 -84 169 -86 173 -2 5 190 7 425 4 389 -3 437
-6 519 -25z"/>
</g>
</svg>
